SplineFontDB: 3.2
FontName: ArchitunMedium
FullName: Architun Medium
FamilyName: Architun
Weight: Medium
Copyright: Copyright (c) 2022, Sayhone
UComments: "2022-8-16: Created with FontForge (http://fontforge.org)"
Version: 001.000
ItalicAngle: 0
UnderlinePosition: -100
UnderlineWidth: 50
Ascent: 800
Descent: 200
InvalidEm: 0
LayerCount: 2
Layer: 0 0 "Back" 1
Layer: 1 0 "Fore" 0
XUID: [1021 501 -1863293109 2110]
OS2Version: 0
OS2_WeightWidthSlopeOnly: 0
OS2_UseTypoMetrics: 1
CreationTime: 1660707410
ModificationTime: 1660763951
OS2TypoAscent: 0
OS2TypoAOffset: 1
OS2TypoDescent: 0
OS2TypoDOffset: 1
OS2TypoLinegap: 0
OS2WinAscent: 0
OS2WinAOffset: 1
OS2WinDescent: 0
OS2WinDOffset: 1
HheadAscent: 0
HheadAOffset: 1
HheadDescent: 0
HheadDOffset: 1
OS2Vendor: 'PfEd'
Lookup: 1 0 0 "'ss01' Style Set 1 in Latin lookup 0" { "'ss01' Style Set 1 in Latin lookup 0-1"  } ['ss01' ('DFLT' <'dflt' > 'latn' <'dflt' > ) ]
Lookup: 1 0 0 "'ss02' Style Set 2 in Latin lookup 1" { "'ss02' Style Set 2 in Latin lookup 1-1"  } ['ss02' ('DFLT' <'dflt' > 'latn' <'dflt' > ) ]
Lookup: 1 0 0 "'ss03' Style Set 3 in Latin lookup 2" { "'ss03' Style Set 3 in Latin lookup 2-1"  } ['ss03' ('DFLT' <'dflt' > 'latn' <'dflt' > ) ]
Lookup: 1 0 0 "'ss04' Style Set 4 in Latin lookup 3" { "'ss04' Style Set 4 in Latin lookup 3-1"  } ['ss04' ('DFLT' <'dflt' > 'latn' <'dflt' > ) ]
MarkAttachClasses: 1
DEI: 91125
Encoding: ISO8859-1
UnicodeInterp: none
NameList: AGL For New Fonts
DisplaySize: -48
AntiAlias: 1
FitToEm: 0
WinInfo: 0 27 9
BeginPrivate: 0
EndPrivate
BeginChars: 260 99

StartChar: H
Encoding: 72 72 0
Width: 542
Flags: HW
LayerCount: 2
Fore
SplineSet
87.80078125 586 m 0
 105.801757812 630 140.634765625 663.166015625 167.80078125 636 c 0
 188.80078125 615 181.80078125 436 181.80078125 362 c 0
 181.80078125 288 172.80078125 133.602539062 172.80078125 120 c 0
 172.80078125 92 168.94140625 52.5390625 159.80078125 37 c 0
 149.80078125 20 135.80078125 0 107.80078125 0 c 0
 87.357421875 0 77.80078125 21 77.80078125 36 c 0
 77.80078125 148.040039062 75.6396484375 238.249023438 77.2099609375 312 c 0
 78.87109375 389.982421875 79.337890625 565.314453125 87.80078125 586 c 0
44.80078125 332 m 0
 124.551757812 409.258789062 220.80078125 437 308.80078125 437 c 0
 396.80078125 437 472.80078125 400 487.80078125 383 c 0
 502.80078125 366 495.80078125 306 468.80078125 300 c 0
 441.80078125 294 426.80078125 325 307.80078125 328 c 0
 188.80078125 331 126.813476562 233.510742188 56.80078125 235 c 0
 9.80078125 236 12.80078125 301 44.80078125 332 c 0
401.80078125 608 m 0
 415.80078125 640 460.634765625 652.166015625 487.80078125 625 c 0
 508.80078125 604 501.80078125 436 501.80078125 362 c 0
 501.80078125 288 492.80078125 147.602539062 492.80078125 134 c 0
 492.80078125 106 490.411132812 68.8310546875 478.80078125 34 c 0
 472.80078125 16 458.7890625 0.6982421875 438.80078125 0 c 0
 419.00390625 -0.69140625 398.80078125 21 397.80078125 54 c 0
 394.80078125 102 397.203125 233.993164062 397.209960938 312 c 0
 397.209960938 390 392.8359375 587.508789062 401.80078125 608 c 0
EndSplineSet
EndChar

StartChar: A
Encoding: 65 65 1
Width: 530
Flags: HW
HStem: 230 115<215.56 319.967>
VStem: 47.0581 93<24.1826 120.494> 419.058 93<7.73221 86.3911>
LayerCount: 2
Fore
SplineSet
39.0576171875 234 m 0
 118.80859375 311.258789062 173.057617188 345 269.057617188 345 c 0
 371.057617188 345 410.057617188 303 425.057617188 286 c 0
 440.057617188 269 455.057617188 208 428.057617188 202 c 0
 401.057617188 196 423.095703125 230 304.057617188 230 c 0
 100.057617188 230 104.057617188 137 51.0576171875 137 c 0
 4.046875 137 7.0576171875 203 39.0576171875 234 c 0
193.057617188 603 m 4
 209.057617188 631 238.057617188 644.850585938 278.057617188 635 c 4
 318.092773438 625.140625 342.057617188 565 386.057617188 449 c 4
 430.057617188 333 504.057617188 122 512.057617188 76 c 4
 520.057617188 30 515.057617188 12 494.057617188 0 c 4
 470.6953125 -13.349609375 443.057617188 -6 419.057617188 34 c 4
 395.057617188 74 336.057617188 285 308.057617188 363 c 4
 280.057617188 441 266.057617188 483 266.057617188 483 c 5
 236.65234375 437.2578125 193.057617188 228 177.057617188 172 c 4
 161.057617188 116 156.057617188 99 140.057617188 59 c 4
 124.057617188 19 91.0576171875 -4 69.0576171875 0 c 4
 47.0576171875 4 34.251953125 31.1591796875 47.0576171875 94 c 4
 65.8271484375 186.104492188 169.829101562 562.349609375 193.057617188 603 c 4
EndSplineSet
EndChar

StartChar: I
Encoding: 73 73 2
Width: 498
Flags: HW
HStem: -4 21G<83.7722 108.772> 617 20G<76.2722 98.2722>
VStem: 46.2722 109<48.3627 617.176>
LayerCount: 2
Fore
SplineSet
26.4638671875 559 m 4
 27.4638671875 615 111.458984375 634.071289062 250.463867188 644 c 4
 404.463867188 655 466.463867188 643 463.463867188 586 c 4
 460.047851562 521.08984375 366.463867188 533 242.463867188 522 c 4
 158.579101562 514.55859375 124.463867188 510 92.4638671875 510 c 4
 54.802734375 510 25.892578125 526.989257812 26.4638671875 559 c 4
26.4638671875 39 m 0
 27.4638671875 95 111.458984375 124.071289062 250.463867188 134 c 0
 404.463867188 145 466.463867188 133 463.463867188 76 c 0
 460.047851562 11.08984375 366.463867188 23 242.463867188 12 c 0
 158.579101562 4.55859375 124.463867188 0 92.4638671875 0 c 0
 54.802734375 0 25.892578125 6.9892578125 26.4638671875 39 c 0
296.272460938 581 m 0
 304.272460938 559 305.272460938 554 305.272460938 492 c 0
 305.272460938 430 304.272460938 430 304.272460938 322 c 0
 304.272460938 213.92578125 301.272460938 85 291.272460938 72 c 0
 281.272460938 59 271.272460938 50 246.272460938 50 c 0
 221.272460938 50 197.272460938 56 195.272460938 104 c 0
 193.272460938 152 190.272460938 573 196.272460938 591 c 0
 202.272460938 609 215.272460938 621 237.272460938 621 c 0
 259.272460938 621 286.180664062 608.751953125 296.272460938 581 c 0
EndSplineSet
EndChar

StartChar: R
Encoding: 82 82 3
Width: 496
Flags: HW
LayerCount: 2
Fore
SplineSet
97.8603515625 610 m 1
 97.8603515625 610 183.860351562 658 279.860351562 658 c 0
 370.860351562 658 455.860351562 604 455.860351562 493 c 0
 455.860351562 428.96875 413.860351562 370 347.860351562 318 c 0
 289.416015625 271.953125 201.860351562 220 167.860351562 245 c 0
 133.860351562 270 149.860351562 312 171.860351562 322 c 0
 193.860351562 332 201.860351562 328 253.860351562 361 c 0
 305.860351562 394 339.860351562 426 339.860351562 473 c 0
 339.860351562 532 302.860351562 552 257.860351562 552 c 0
 184.860351562 552 117.860351562 482 91.8603515625 481 c 0
 65.8603515625 480 31.8603515625 473 33.8603515625 524 c 0
 35.8603515625 575 97.8603515625 610 97.8603515625 610 c 1
103.860351562 499 m 0
 107.860351562 545 117.166992188 622.346679688 179.860351562 591 c 0
 205.860351562 578 198.737304688 450.609375 196.8125 331 c 0
 194.874023438 210.490234375 193.868164062 78.052734375 191.860351562 64 c 0
 187.860351562 36 169.860351562 4 143.860351562 0 c 0
 117.860351562 -4 95.8603515625 19 95.8603515625 53 c 0
 95.8603515625 101.041992188 94.271484375 268.987304688 95.8603515625 327 c 0
 97.8603515625 400 99.8603515625 453 103.860351562 499 c 0
350.860351562 344 m 0
 409.860351562 317 453.264648438 270.333984375 460.91015625 160.485351562 c 0
 466.860351562 75 452.48828125 19.7236328125 419.874023438 -0.923828125 c 0
 392.982421875 -17.9482421875 353.44140625 -0.47265625 360.998046875 70.62109375 c 0
 369.860351562 154 351.860351562 248 288.860351562 267 c 0
 225.860351562 286 236.860351562 316 261.860351562 334 c 0
 297.350585938 359.552734375 322.322265625 357.059570312 350.860351562 344 c 0
EndSplineSet
EndChar

StartChar: C
Encoding: 67 67 4
Width: 495
Flags: HW
LayerCount: 2
Fore
SplineSet
364.192382812 430 m 0
 362.88671875 406.499023438 361.981445312 380.438476562 391.192382812 380 c 0
 409.301757812 379.728515625 455.192382812 400 453.192382812 494 c 0
 451.192382812 588 401.192382812 648 317.192382812 648 c 4
 255.063476562 648 184.985351562 615.142578125 123.192382812 525 c 4
 73.8359375 453 39.8359375 365 37.1923828125 242 c 4
 33.2666015625 59.33984375 143.192382812 -4 237.192382812 -10 c 4
 331.192382812 -16 400.479492188 16.6357421875 441.000976562 80 c 4
 484.698242188 148.329101562 447.526367188 192.041015625 392.000976562 144 c 4
 360.116210938 116.413085938 319.192382812 88 255.192382812 92 c 4
 191.192382812 96 136.103515625 117.103515625 144.192382812 259 c 4
 149.8359375 358 168.555664062 400.93359375 194.192382812 452 c 4
 229.8359375 523 271.223632812 548.333007812 305.192382812 550 c 4
 350.53125 552.224609375 368.192382812 502 364.192382812 430 c 0
EndSplineSet
Substitution2: "'ss01' Style Set 1 in Latin lookup 0-1" C.ss01
EndChar

StartChar: N
Encoding: 78 78 5
Width: 514
Flags: HW
LayerCount: 2
Fore
SplineSet
95.1787109375 635 m 1
 38.1787109375 626 50.1787109375 536 43.1787109375 160 c 0
 40.755859375 29.8837890625 56.1787109375 0 86.1787109375 0 c 0
 116.178710938 0 135.15234375 40.767578125 142.178710938 150 c 0
 153.178710938 321 150.178710938 407 150.178710938 407 c 1
 150.178710938 407 200.025390625 302.3359375 264.178710938 162 c 0
 296.178710938 92 339.178710938 0 393.178710938 0 c 0
 447.178710938 0 473.178710938 69 471.178710938 350 c 0
 470.295898438 473.997070312 477.178710938 579 438.178710938 624 c 0
 405.748046875 661.419921875 367.178710938 639 367.178710938 599 c 4
 367.178710938 559 361.178710938 195 361.178710938 195 c 5
 361.178710938 195 294.653320312 348.8828125 267.178710938 405 c 0
 173.178710938 597 136.178710938 638 95.1787109375 635 c 1
EndSplineSet
EndChar

StartChar: U
Encoding: 85 85 6
Width: 497
Flags: HW
LayerCount: 2
Fore
SplineSet
54.509765625 591 m 0
 57.6064453125 624.591796875 87.509765625 636 104.509765625 636 c 0
 115.911132812 636 152.978515625 631.911132812 156.509765625 562 c 0
 166.509765625 364 122.509765625 247 142.509765625 152 c 0
 150.533203125 113.88671875 186.676757812 98.208984375 223.509765625 98 c 0
 336.4375 97.3603515625 363.509765625 230 363.509765625 396 c 0
 363.509765625 512 361.509765625 494 359.509765625 566 c 0
 357.509765625 638 384.509765625 644 408.509765625 644 c 0
 432.509765625 644 464.509765625 628 470.509765625 494 c 0
 476.509765625 360 472.509765625 224 425.509765625 117 c 0
 390.614257812 37.556640625 320.509765625 -10 214.509765625 -10 c 0
 68.509765625 -10 15.509765625 110 25.509765625 236 c 0
 35.509765625 362 41.509765625 450 54.509765625 591 c 0
EndSplineSet
EndChar

StartChar: T
Encoding: 84 84 7
Width: 490
Flags: HW
LayerCount: 2
Fore
SplineSet
276.000976562 577 m 0
 284.000976562 555 285.000976562 530 285.000976562 468 c 0
 285.000976562 406 284.000976562 420 284.000976562 312 c 0
 284.000976562 203.92578125 283.452148438 105 269.452148438 55 c 0
 260.92578125 24.548828125 241.452148438 0 216.452148438 0 c 0
 191.452148438 0 175.452148438 18 175.000976562 50 c 0
 174.323242188 98.037109375 185.000976562 569 191.000976562 587 c 0
 197.000976562 605 215.000976562 617 237.000976562 617 c 0
 259.000976562 617 265.909179688 604.751953125 276.000976562 577 c 0
26.4521484375 524 m 4
 27.4521484375 580 111.447265625 629.071289062 250.452148438 639 c 4
 404.452148438 650 466.452148438 638 463.452148438 581 c 4
 460.036132812 516.08984375 366.452148438 538 242.452148438 527 c 4
 158.567382812 519.55859375 124.73828125 492.458984375 92.4521484375 485 c 4
 55.7578125 476.522460938 25.880859375 491.989257812 26.4521484375 524 c 4
EndSplineSet
EndChar

StartChar: G
Encoding: 71 71 8
Width: 542
Flags: HW
LayerCount: 2
Fore
SplineSet
337.868164062 549 m 4
 295.868164062 552 241.513671875 523.209960938 206.1875 452 c 4
 180.793945312 400.8125 161.831054688 358 156.1875 259 c 0
 148.098632812 117.103515625 203.1875 96 267.1875 92 c 0
 306.029296875 89.572265625 358.868164062 105 383.868164062 148 c 0
 391.97265625 161.939453125 393.53125 243.616210938 392.868164062 292 c 1
 392.868164062 292 369.930664062 286.298828125 341.868164062 287 c 0
 301.868164062 288 296.053710938 312.09375 298.868164062 333 c 0
 305.868164062 385 389.868164062 411 434.868164062 410 c 0
 479.868164062 409 488.868164062 391 491.868164062 300 c 0
 494.868164062 209 492.868164062 136 466.1875 89 c 0
 427.8359375 21.44140625 343.1875 -16 249.1875 -10 c 0
 155.1875 -4 45.26171875 59.33984375 49.1875 242 c 0
 51.8310546875 365 85.8310546875 453 135.1875 525 c 4
 196.98046875 615.142578125 263.739257812 654 325.868164062 654 c 4
 409.868164062 654 444.868164062 616 450.868164062 584 c 4
 456.868164062 552 437.868164062 526 401.868164062 526 c 4
 368.807617188 526 372.793945312 546.504882812 337.868164062 549 c 4
EndSplineSet
EndChar

StartChar: C.ss01
Encoding: 256 -1 9
Width: 495
Flags: HW
LayerCount: 2
Fore
SplineSet
194.192382812 452 m 0
 230.518554688 523.209960938 283.874023438 552 325.874023438 549 c 0
 360.799804688 546.504882812 356.813476562 526 389.874023438 526 c 0
 425.874023438 526 444.874023438 552 438.874023438 584 c 0
 432.874023438 616 397.874023438 654 313.874023438 654 c 0
 251.745117188 654 185.986328125 615.142578125 123.192382812 525 c 0
 73.8359375 453 39.8359375 365 37.1923828125 242 c 0
 33.2666015625 59.33984375 143.192382812 -4 237.192382812 -10 c 4
 331.192382812 -16 400.479492188 16.6357421875 441.000976562 80 c 4
 484.698242188 148.329101562 447.526367188 192.041015625 392.000976562 144 c 4
 360.116210938 116.413085938 319.192382812 88 255.192382812 92 c 4
 191.192382812 96 136.103515625 117.103515625 144.192382812 259 c 0
 149.8359375 358 168.555664062 400.93359375 194.192382812 452 c 0
EndSplineSet
EndChar

StartChar: D
Encoding: 68 68 10
Width: 530
Flags: HW
LayerCount: 2
Fore
SplineSet
107.217773438 499 m 0
 111.217773438 545 120.524414062 622.346679688 183.217773438 591 c 0
 209.217773438 578 202.094726562 530.609375 200.169921875 411 c 0
 198.231445312 290.490234375 197.225585938 78.052734375 195.217773438 64 c 0
 191.217773438 36 173.217773438 4 147.217773438 0 c 0
 121.217773438 -4 99.2177734375 19 99.2177734375 53 c 0
 99.2177734375 101.041992188 97.62890625 268.987304688 99.2177734375 327 c 0
 101.217773438 400 103.217773438 453 107.217773438 499 c 0
492.866210938 351 m 0
 492.866210938 214.092773438 463.3984375 149.072265625 400.866210938 83 c 0
 347.866210938 27 263.543945312 -10.23828125 193.857421875 -10 c 0
 155.08984375 -9.8671875 132.977539062 -3.4931640625 118.857421875 8 c 0
 79.2744140625 40.220703125 143.841796875 88.599609375 169.857421875 89 c 0
 234.857421875 90 276.299804688 109.546875 310 141 c 0
 355 183 382.866210938 247.44921875 382.866210938 353 c 0
 382.866210938 499 336.217773438 552 261.217773438 552 c 0
 188.217773438 552 121.217773438 482 95.2177734375 481 c 0
 69.2177734375 480 35.2177734375 473 37.2177734375 524 c 0
 39.2177734375 575 101.217773438 610 101.217773438 610 c 1
 101.217773438 610 187.217773438 658 283.217773438 658 c 0
 404.217773438 658 492.866210938 553 492.866210938 351 c 0
EndSplineSet
EndChar

StartChar: S
Encoding: 83 83 11
Width: 516
Flags: HW
LayerCount: 2
Fore
SplineSet
262.5 555 m 0
 195.5 555 138.5 501 138.5 450 c 0
 138.5 419.74609375 156.37890625 403 182.5 403 c 0
 249.5 403 264.5 425 342.5 425 c 0
 430.5 425 482.5 352.10546875 482.5 266 c 0
 482.5 164 460.815429688 0.109375 216.5 -10 c 0
 71.5 -16 54.5 99 54.5 136 c 0
 54.5 160.819335938 74.9921875 184 106 184 c 0
 133 184 157.5 172 159.5 142 c 0
 161.77734375 107.841796875 172.502011458 92.7279790369 230.5 94 c 0
 340.703125 96.4169921875 378.5 162 378.5 240 c 0
 378.5 288 353.5 329 313.5 329 c 0
 249.462890625 329 218.5 300 150.5 300 c 0
 82.5 300 33.5 357 33.5 427 c 0
 33.5 597 220.5 655 286.5 655 c 0
 352.5 655 408 617 410 534 c 0
 411.112304688 487.83984375 396.5 465 360.5 465 c 0
 344.5 465 310 476 309 502 c 0
 307.380859375 544.1015625 295.560546875 555 262.5 555 c 0
EndSplineSet
Substitution2: "'ss04' Style Set 4 in Latin lookup 3-1" S.ss04
EndChar

StartChar: P
Encoding: 80 80 12
Width: 487
Flags: HW
LayerCount: 2
Fore
SplineSet
96.5419921875 610 m 1
 96.5419921875 610 182.541992188 658 278.541992188 658 c 0
 369.541992188 658 454.541992188 594 454.541992188 483 c 0
 454.541992188 358.96875 388.541992188 293 322.272460938 248.44140625 c 0
 260.52734375 206.924804688 172.48828125 166.329101562 139.509765625 192.662109375 c 0
 106.532226562 218.995117188 124.190429688 260.32421875 146.5703125 269.44140625 c 0
 168.951171875 278.55859375 176.786132812 274.243164062 230.057617188 305.147460938 c 0
 283.329101562 336.052734375 338.541992188 396 338.541992188 463 c 0
 338.541992188 522 301.541992188 552 256.541992188 552 c 0
 183.541992188 552 116.541992188 482 90.5419921875 481 c 0
 64.5419921875 480 30.5419921875 473 32.5419921875 524 c 0
 34.5419921875 575 96.5419921875 610 96.5419921875 610 c 1
102.541992188 499 m 0
 106.541992188 545 115.848632812 622.346679688 178.541992188 591 c 0
 204.541992188 578 197.418945312 450.609375 195.494140625 331 c 0
 193.555664062 210.490234375 192.549804688 78.052734375 190.541992188 64 c 0
 186.541992188 36 168.541992188 4 142.541992188 0 c 0
 116.541992188 -4 94.5419921875 19 94.5419921875 53 c 0
 94.5419921875 101.041992188 92.953125 268.987304688 94.5419921875 327 c 0
 96.5419921875 400 98.5419921875 453 102.541992188 499 c 0
EndSplineSet
EndChar

StartChar: L
Encoding: 76 76 13
Width: 419
Flags: HW
HStem: 0 91<225.045 414.086>
VStem: 23.9651 106<113.444 403.92>
LayerCount: 2
Fore
SplineSet
51.96484375 596 m 0
 53.96484375 628 153.96484375 651.1171875 153.96484375 583 c 0
 153.96484375 538 145.068359375 417.250976562 135.96484375 287 c 0
 132.78125 241.46484375 129.96484375 214.299804688 129.96484375 176 c 0
 129.96484375 120 151.028320312 100.284179688 191.96484375 91 c 0
 288.96484375 69 314.21484375 112.278320312 361.96484375 96 c 0
 405.96484375 81 409.732421875 18.4365234375 351.96484375 0 c 0
 304.96484375 -15 267.96484375 -16 221.96484375 -16 c 0
 105.96484375 -16 26.2333984375 36.005859375 23.96484375 136 c 0
 21.6845703125 236.484375 50.4560546875 571.860351562 51.96484375 596 c 0
EndSplineSet
EndChar

StartChar: O
Encoding: 79 79 14
Width: 516
Flags: HW
LayerCount: 2
Fore
SplineSet
274.92578125 523.379882812 m 4
 202.521484375 521.286132812 143.436523438 461.362304688 141.446289062 314.220703125 c 4
 139.708984375 185.796875 188.446289062 106.2734375 258.005859375 106.2734375 c 4
 318.166015625 106.2734375 374.452148438 167.456054688 372.686523438 334.440429688 c 4
 371.516601562 444.98828125 336.931640625 525.172851562 274.92578125 523.379882812 c 4
271.0703125 638 m 0
 359.0703125 638 477.0703125 561 477.0703125 349 c 0
 477.0703125 82.796875 376.0703125 -10 248.0703125 -10 c 0
 110.0703125 -10 35.2236328125 127.997070312 39.0703125 326 c 0
 43.3037109375 543.874023438 177.0703125 638 271.0703125 638 c 0
EndSplineSet
EndChar

StartChar: B
Encoding: 66 66 15
Width: 509
Flags: HW
LayerCount: 2
Fore
SplineSet
98.2177734375 610 m 5
 98.2177734375 610 184.217773438 658 280.217773438 658 c 4
 371.217773438 658 456.217773438 604 456.217773438 493 c 4
 456.217773438 428.96875 409.123046875 377.171875 371.857421875 353 c 4
 334.857421875 329 202.217773438 300 168.217773438 325 c 4
 134.217773438 350 137.857421875 361 159.857421875 371 c 4
 181.857421875 381 226.857421875 343 278.857421875 376 c 4
 330.857421875 409 340.217773438 446 340.217773438 473 c 4
 340.217773438 532 303.217773438 552 258.217773438 552 c 4
 185.217773438 552 118.217773438 482 92.2177734375 481 c 4
 66.2177734375 480 32.2177734375 473 34.2177734375 524 c 4
 36.2177734375 575 98.2177734375 610 98.2177734375 610 c 5
104.217773438 499 m 4
 108.217773438 545 117.524414062 622.346679688 180.217773438 591 c 4
 206.217773438 578 199.094726562 530.609375 197.169921875 411 c 4
 195.231445312 290.490234375 194.225585938 78.052734375 192.217773438 64 c 4
 188.217773438 36 170.217773438 4 144.217773438 0 c 4
 118.217773438 -4 96.2177734375 19 96.2177734375 53 c 4
 96.2177734375 101.041992188 94.62890625 268.987304688 96.2177734375 327 c 4
 98.2177734375 400 100.217773438 453 104.217773438 499 c 4
438.857421875 92 m 4
 372.34375 14.9765625 280.543945312 -10.2392578125 210.857421875 -10 c 4
 172.08984375 -9.8671875 129.977539062 -3.4931640625 115.857421875 8 c 4
 76.2744140625 40.220703125 140.841796875 88.599609375 166.857421875 89 c 4
 231.857421875 90 313.52734375 86.0234375 353.857421875 151 c 4
 371.857421875 180 384.21484375 237.911132812 340.041992188 277.022460938 c 4
 304.852539062 308.1796875 267.44140625 304.577148438 207.857421875 289 c 4
 181.537109375 282.119140625 170.857421875 274 152.857421875 270 c 4
 129.267578125 264.7578125 108.036132812 275.970703125 111.857421875 318 c 4
 115.678710938 360.028320312 156.078125 372.532226562 229.296875 385.763671875 c 4
 311.981445312 400.706054688 341.041015625 392.263671875 406.857421875 346 c 4
 481.73046875 293.372070312 498.315429688 160.852539062 438.857421875 92 c 4
EndSplineSet
EndChar

StartChar: E
Encoding: 69 69 16
Width: 427
Flags: HW
HStem: 0 91<230.163 419.204>
VStem: 29.0828 106<113.444 403.92>
LayerCount: 2
Fore
SplineSet
218.118164062 364 m 4
 263.662109375 370.461914062 292.118164062 376 327.118164062 363 c 4
 365.104492188 348.890625 365.63671875 296.362304688 338.118164062 280 c 4
 301.118164062 258 277.133789062 258.817382812 206.977539062 248.86328125 c 4
 161.43359375 242.401367188 124.715820312 228.528320312 76.0185546875 236.44140625 c 4
 18.5634765625 245.778320312 22.6005859375 304.2109375 52.6318359375 320.084960938 c 4
 97.232421875 343.66015625 147.961914062 354.045898438 218.118164062 364 c 4
145.626953125 437.416992188 m 0
 142.568359375 392.509765625 140.684570312 361.99609375 139.546875 289.873046875 c 0
 138.827148438 244.232421875 137.479492188 196.955078125 139.546875 158.7109375 c 0
 142.569335938 102.79296875 155.163085938 88.8173828125 197.083007812 91 c 0
 293.118164062 96 319.333007812 112.278320312 367.083007812 96 c 0
 411.083007812 81 414.850585938 18.4365234375 357.083007812 0 c 0
 310.083007812 -15 263.083007812 -16 217.083007812 -16 c 0
 101.083007812 -16 43.5234375 13.322265625 35.8603515625 113.047851562 c 0
 30.8359375 178.438476562 17.89453125 393.428710938 36.208984375 498.571289062 c 0
 52.88671875 594.314453125 101.409179688 617.840820312 216.258789062 634.13671875 c 0
 261.802734375 640.598632812 298.520507812 644.471679688 347.217773438 636.55859375 c 0
 404.672851562 627.221679688 400.635742188 568.7890625 370.604492188 552.915039062 c 0
 326.00390625 529.33984375 275.118164062 530 205.118164062 519 c 0
 163.650390625 512.483398438 149.71875 497.484375 145.626953125 437.416992188 c 0
EndSplineSet
EndChar

StartChar: F
Encoding: 70 70 17
Width: 427
Flags: HW
HStem: 0 91<233.336 422.377>
VStem: 32.2559 106<113.444 403.92>
LayerCount: 2
Fore
SplineSet
221.291015625 330 m 0
 266.834960938 336.461914062 295.291015625 346 330.291015625 333 c 0
 368.27734375 318.890625 368.809570312 266.362304688 341.291015625 250 c 0
 304.291015625 228 280.306640625 224.817382812 210.150390625 214.86328125 c 0
 164.606445312 208.401367188 127.888671875 198.528320312 79.19140625 206.44140625 c 0
 21.736328125 215.778320312 25.7734375 274.2109375 55.8046875 290.084960938 c 0
 100.405273438 313.66015625 151.134765625 320.045898438 221.291015625 330 c 0
142.291015625 155 m 0
 142.291015625 84.4130859375 143.291015625 47 139.14453125 32.0478515625 c 0
 132.794921875 9.1533203125 116.14453125 0.0478515625 91.14453125 0.0478515625 c 0
 66.14453125 0.0478515625 43.111328125 6.09765625 40.14453125 54.0478515625 c 0
 38.291015625 84 22.58984375 394.631835938 39.3818359375 498.571289062 c 0
 54.880859375 594.512695312 99.58203125 617.840820312 214.431640625 634.13671875 c 0
 259.975585938 640.598632812 301.693359375 642.471679688 350.390625 634.55859375 c 0
 407.845703125 625.221679688 403.80859375 566.7890625 373.77734375 550.915039062 c 0
 329.176757812 527.33984375 273.291015625 530 203.291015625 519 c 0
 161.823242188 512.483398438 152.891601562 497.484375 148.799804688 437.416992188 c 0
 145.741210938 392.509765625 143.857421875 361.99609375 142.719726562 289.873046875 c 0
 142 244.232421875 142.291015625 190 142.291015625 155 c 0
EndSplineSet
EndChar

StartChar: J
Encoding: 74 74 18
Width: 412
Flags: HW
HStem: -4 21G<283.183 308.183> 617 20G<275.683 297.683>
VStem: 245.683 109<48.3627 617.176>
LayerCount: 2
Fore
SplineSet
362.411132812 184 m 0
 358.411132812 61 275.540039062 0 173.411132812 0 c 0
 89.4111328125 0 54.4111328125 38 48.4111328125 70 c 0
 42.4111328125 102 61.4111328125 128 97.4111328125 128 c 0
 130.471679688 128 136.485351562 117.495117188 171.411132812 115 c 0
 213.411132812 111.999023438 252.950195312 113.776367188 252.950195312 193.267578125 c 0
 251.810546875 353.962890625 251.55078125 598.6015625 255.68359375 611 c 0
 261.68359375 629 274.68359375 641 296.68359375 641 c 0
 318.68359375 641 345.591796875 628.751953125 355.68359375 601 c 0
 363.68359375 579 364.68359375 554 364.68359375 492 c 0
 364.68359375 430 363.68359375 430 363.68359375 322 c 0
 363.68359375 283.435546875 363.356445312 229.849609375 362.411132812 184 c 0
EndSplineSet
EndChar

StartChar: K
Encoding: 75 75 19
Width: 496
Flags: HW
HStem: -4 21G<76.5468 101.547> 617 20G<69.0468 91.0468>
VStem: 39.0468 109<48.3627 617.176>
LayerCount: 2
Fore
SplineSet
149.046875 597 m 0
 157.046875 575 158.046875 550 158.046875 488 c 0
 158.046875 426 157.046875 430 157.046875 322 c 0
 157.046875 213.92578125 154.046875 35 144.046875 22 c 0
 134.046875 9 124.046875 0 99.046875 0 c 0
 74.046875 0 50.046875 6 48.046875 54 c 0
 46.046875 102 43.046875 589 49.046875 607 c 0
 55.046875 625 68.046875 637 90.046875 637 c 0
 112.046875 637 138.955078125 624.751953125 149.046875 597 c 0
441.245117188 520.490234375 m 0
 435.412109375 447.23046875 395.541015625 373.959960938 323.719726562 316.240234375 c 0
 260.12109375 265.127929688 164.842773438 207.459960938 127.84375 235.209960938 c 0
 90.845703125 262.959960938 108.256835938 309.580078125 132.197265625 320.6796875 c 0
 156.137695312 331.780273438 164.842773438 327.33984375 221.428710938 363.969726562 c 0
 278.015625 400.599609375 300.26953125 431.690429688 319.856445312 513.830078125 c 0
 334.360351562 574.65234375 345.319335938 647.322265625 398.413085938 629.26953125 c 0
 418.000976562 622.610351562 447.272460938 596.19140625 441.245117188 520.490234375 c 0
339.134765625 344 m 0
 398.134765625 317 441.5390625 270.333984375 449.184570312 160.485351562 c 0
 455.134765625 75 440.762695312 19.7236328125 408.1484375 -0.923828125 c 0
 381.256835938 -17.9482421875 331.715820312 -0.47265625 339.272460938 70.62109375 c 0
 348.134765625 154 340.134765625 248 277.134765625 267 c 0
 214.134765625 286 225.134765625 316 250.134765625 334 c 0
 285.625 359.552734375 310.596679688 357.059570312 339.134765625 344 c 0
EndSplineSet
EndChar

StartChar: M
Encoding: 77 77 20
Width: 614
Flags: HW
LayerCount: 2
Fore
SplineSet
313.809570312 371.92578125 m 5
 345.19921875 453.26953125 381.612304688 642.481445312 449.838867188 630.268554688 c 4
 507.416015625 616.783203125 524.124023438 538.03125 567.521484375 164.478515625 c 4
 582.5390625 35.2099609375 559.135742188 2.90625 529.27734375 0 c 0
 499.41796875 -2.9072265625 477.579101562 35.927734375 460.002929688 143.96484375 c 4
 432.486328125 313.094726562 426.171875 408.93359375 426.171875 408.93359375 c 5
 426.171875 408.93359375 382.27734375 202 314.27734375 202 c 4
 246.27734375 202 196.510742188 408.2578125 196.510742188 408.2578125 c 5
 196.510742188 408.2578125 187.583007812 310.334960938 155.458007812 142.01953125 c 4
 134.936523438 34.501953125 112.045898438 -3.7216796875 82.27734375 0 c 0
 52.5087890625 3.720703125 29.99609375 36.6513671875 48.5400390625 165.461914062 c 4
 102.123046875 537.690429688 121.223632812 626.002929688 178.900390625 627.86328125 c 4
 245.614257812 629.927734375 281.583007812 450.666015625 313.809570312 371.92578125 c 5
EndSplineSet
EndChar

StartChar: Q
Encoding: 81 81 21
Width: 516
Flags: HW
LayerCount: 2
Fore
SplineSet
298 57 m 4
 271.671875 94.720703125 241.099609375 136.067382812 236.897460938 173.166015625 c 4
 232.336914062 213.430664062 278.966796875 237.62109375 305.990234375 220.454101562 c 4
 342.325195312 197.372070312 365.209960938 157.146484375 405.764648438 99.041015625 c 4
 432.091796875 61.3203125 461.047851562 34.8203125 475.97265625 -12.2041015625 c 4
 493.581054688 -67.685546875 439.620117188 -90.4638671875 411.897460938 -70.833984375 c 4
 370.725585938 -41.681640625 338.555664062 -1.10546875 298 57 c 4
274.92578125 523.379882812 m 0
 202.521484375 521.286132812 143.436523438 461.362304688 141.446289062 314.220703125 c 0
 139.708984375 185.796875 188.446289062 106.2734375 258.005859375 106.2734375 c 0
 318.166015625 106.2734375 374.452148438 167.456054688 372.686523438 334.440429688 c 0
 371.516601562 444.98828125 336.931640625 525.172851562 274.92578125 523.379882812 c 0
271.0703125 638 m 0
 359.0703125 638 477.0703125 561 477.0703125 349 c 0
 477.0703125 82.796875 376.0703125 -10 248.0703125 -10 c 0
 110.0703125 -10 35.2236328125 127.997070312 39.0703125 326 c 0
 43.3037109375 543.874023438 177.0703125 638 271.0703125 638 c 0
EndSplineSet
EndChar

StartChar: V
Encoding: 86 86 22
Width: 549
Flags: HW
LayerCount: 2
Fore
SplineSet
329.584960938 29.05859375 m 0
 313.584960938 1.05859375 284.584960938 -12.7919921875 244.584960938 -2.94140625 c 0
 204.549804688 6.91796875 190.584960938 67.05859375 146.584960938 183.05859375 c 0
 102.584960938 299.05859375 48.5849609375 510.05859375 40.5849609375 556.05859375 c 0
 32.5849609375 602.05859375 37.5849609375 620.05859375 58.5849609375 632.05859375 c 0
 81.947265625 645.408203125 109.584960938 638.05859375 133.584960938 598.05859375 c 0
 157.584960938 558.05859375 213.013671875 354 234.584960938 269.05859375 c 0
 254.983398438 188.735351562 272.013671875 125 272.013671875 125 c 1
 282.442382812 181.94140625 353.013671875 408 371.584960938 460.05859375 c 0
 391.153320312 514.913085938 401.013671875 547 417.013671875 587 c 0
 433.013671875 627 457.013671875 637 479.013671875 633 c 0
 501.013671875 629 518.013671875 606 510.013671875 552 c 0
 493.908203125 443.287109375 352.813476562 69.708984375 329.584960938 29.05859375 c 0
EndSplineSet
EndChar

StartChar: W
Encoding: 87 87 23
Width: 614
Flags: HW
LayerCount: 2
Fore
SplineSet
300.190429688 288.662109375 m 5
 265.000976562 151 240.000976562 0.0458984375 174.161132812 0.3193359375 c 0
 105.026367188 0.6064453125 89.8759765625 92.556640625 46.478515625 466.109375 c 0
 31.4609375 595.377929688 54.8642578125 627.681640625 84.72265625 630.587890625 c 0
 114.58203125 633.495117188 136.420898438 594.66015625 153.997070312 486.623046875 c 0
 181.513671875 317.493164062 187.828125 221.654296875 187.828125 221.654296875 c 1
 187.828125 221.654296875 199.76171875 321.211914062 207.000976562 364 c 0
 220.875 446.004882812 241.895507812 518.587890625 299.72265625 518.587890625 c 0
 355.345703125 518.587890625 376.720703125 437.215820312 393.000976562 356 c 4
 402.477539062 308.725585938 417.489257812 222.330078125 417.489257812 222.330078125 c 5
 417.489257812 222.330078125 426.416992188 320.252929688 458.541992188 488.568359375 c 4
 479.063476562 596.0859375 501.954101562 634.309570312 531.72265625 630.587890625 c 4
 561.491210938 626.8671875 584.001953125 593.936523438 565.459960938 465.125976562 c 4
 511.876953125 92.8974609375 482.677734375 1.8603515625 415.000976562 0 c 4
 348.280273438 -1.833984375 325.000976562 171 300.190429688 288.662109375 c 5
EndSplineSet
EndChar

StartChar: X
Encoding: 88 88 24
Width: 495
Flags: HW
LayerCount: 2
Fore
SplineSet
452.41796875 538.05859375 m 4
 429.41796875 492.05859375 338.646484375 343.19140625 297.998046875 270.971679688 c 4
 255.012695312 194.600585938 154.524414062 53.26171875 123.181640625 18.712890625 c 4
 91.8388671875 -15.8349609375 63.2978515625 -17.6513671875 42.9892578125 0 c 4
 24.734375 15.8671875 23.3427734375 34.49609375 40.1640625 78.0517578125 c 4
 56.9853515625 121.606445312 160.40234375 274.15234375 225.831054688 379.5625 c 4
 290.834960938 484.288085938 369.41796875 665.05859375 434.41796875 642.05859375 c 4
 463.08984375 631.913085938 480.424804688 594.073242188 452.41796875 538.05859375 c 4
452.41796875 104 m 0
 480.424804688 47.9853515625 463.08984375 10.1455078125 434.41796875 0 c 0
 369.41796875 -23 290.834960938 141.770507812 225.831054688 246.49609375 c 0
 160.40234375 351.90625 66.9853515625 510.452148438 50.1640625 554.006835938 c 0
 33.3427734375 597.5625 34.734375 616.19140625 52.9892578125 632.05859375 c 0
 73.2978515625 649.709960938 101.838867188 647.893554688 133.181640625 613.345703125 c 0
 164.525390625 578.796875 255.012695312 431.458007812 297.998046875 355.086914062 c 0
 338.646484375 282.8671875 429.41796875 150 452.41796875 104 c 0
EndSplineSet
EndChar

StartChar: Y
Encoding: 89 89 25
Width: 509
Flags: HW
LayerCount: 2
Fore
SplineSet
266.765625 344.936523438 m 28
 277.868164062 316.8203125 276.928710938 281.677734375 257.408203125 267.396484375 c 4
 235.69140625 251.509765625 196.447265625 265.716796875 179.06640625 292.764648438 c 28
 103.047851562 408.045898438 49.587890625 519.118164062 36.4765625 563.9296875 c 4
 23.365234375 608.741210938 26.3125 627.188476562 45.833984375 641.469726562 c 4
 67.5498046875 657.356445312 95.8388671875 653.154296875 124.17578125 616.1015625 c 4
 152.51171875 579.046875 224.412109375 456.79296875 266.765625 344.936523438 c 28
465.126953125 538.05859375 m 0
 441.106445312 492.05859375 347.034179688 343.19140625 304.784179688 270.971679688 c 0
 260.106445312 194.600585938 156.484375 53.26171875 124.375 18.712890625 c 0
 92.2666015625 -15.8349609375 63.6845703125 -17.6513671875 43.767578125 0 c 0
 25.865234375 15.8671875 24.88671875 34.49609375 42.673828125 78.0517578125 c 0
 60.4599609375 121.606445312 167.260742188 274.15234375 235.026367188 379.5625 c 0
 302.3515625 484.288085938 384.943359375 665.05859375 449.43359375 642.05859375 c 0
 477.880859375 631.913085938 494.375976562 594.073242188 465.126953125 538.05859375 c 0
EndSplineSet
EndChar

StartChar: Z
Encoding: 90 90 26
Width: 549
Flags: HW
LayerCount: 2
Fore
SplineSet
56.4638671875 39 m 0
 57.4638671875 95 141.458984375 124.071289062 280.463867188 134 c 0
 434.463867188 145 496.463867188 133 493.463867188 76 c 0
 490.047851562 11.08984375 396.463867188 23 272.463867188 12 c 0
 188.579101562 4.55859375 154.463867188 0 122.463867188 0 c 0
 84.802734375 0 55.892578125 6.9892578125 56.4638671875 39 c 0
56.4638671875 559 m 4
 57.4638671875 615 141.458984375 634.071289062 280.463867188 644 c 4
 434.463867188 655 496.463867188 643 493.463867188 586 c 4
 490.047851562 521.08984375 396.463867188 533 272.463867188 522 c 4
 188.579101562 514.55859375 154.463867188 510 122.463867188 510 c 4
 84.802734375 510 55.892578125 526.989257812 56.4638671875 559 c 4
485.017578125 538.05859375 m 0
 460.997070312 492.05859375 366.924804688 343.19140625 324.674804688 270.971679688 c 0
 279.997070312 194.600585938 176.375 69.26171875 144.265625 34.712890625 c 0
 112.157226562 0.1650390625 83.5751953125 -1.6513671875 63.658203125 16 c 0
 45.755859375 31.8671875 44.77734375 50.49609375 62.564453125 94.0517578125 c 0
 80.3505859375 137.606445312 187.15234375 274.15234375 254.916992188 379.5625 c 0
 322.2421875 484.288085938 400.973632812 657 465.463867188 634 c 0
 493.911132812 623.854492188 514.267578125 594.073242188 485.017578125 538.05859375 c 0
EndSplineSet
EndChar

StartChar: zero
Encoding: 48 48 27
Width: 496
Flags: HW
LayerCount: 2
Fore
SplineSet
266.0703125 542 m 4
 189.043945312 539.772460938 136.1875 476.0234375 134.0703125 319.490234375 c 0
 132.22265625 182.869140625 174.0703125 98.26953125 248.0703125 98.26953125 c 4
 312.0703125 98.26953125 361.94921875 163.357421875 360.0703125 341 c 0
 358.826171875 458.604492188 332.033203125 543.907226562 266.0703125 542 c 4
261.0703125 638 m 4
 349.0703125 638 457.0703125 561 457.0703125 349 c 0
 457.0703125 82.796875 366.0703125 -10 238.0703125 -10 c 4
 100.0703125 -10 35.2236328125 127.997070312 39.0703125 326 c 0
 43.3037109375 543.874023438 167.0703125 638 261.0703125 638 c 4
EndSplineSet
EndChar

StartChar: one
Encoding: 49 49 28
Width: 265
Flags: HW
HStem: -4 21G<130.772 155.772> 617 20G<123.272 145.272>
VStem: 93.2722 109<48.3627 617.176>
LayerCount: 2
Fore
SplineSet
144.272460938 641 m 1
 144.272460938 641 138.272460938 607 139.272460938 586 c 0
 140.272460938 565 137.5 510 102.272460938 510 c 0
 49 510 26.8583984375 530 27 556 c 0
 27.36328125 622.7421875 106 642 144.272460938 641 c 1
203.272460938 601 m 0
 211.272460938 579 212.272460938 554 212.272460938 492 c 0
 212.272460938 430 211.272460938 430 211.272460938 322 c 0
 211.272460938 213.92578125 208.272460938 35 198.272460938 22 c 0
 188.272460938 9 178.272460938 0 153.272460938 0 c 0
 128.272460938 0 104.272460938 6 102.272460938 54 c 0
 100.272460938 102 97.2724609375 593 103.272460938 611 c 0
 109.272460938 629 122.272460938 641 144.272460938 641 c 0
 166.272460938 641 193.180664062 628.751953125 203.272460938 601 c 0
EndSplineSet
EndChar

StartChar: two
Encoding: 50 50 29
Width: 456
Flags: HW
LayerCount: 2
Fore
SplineSet
16.46875 27 m 0
 17.46875 83 101.463867188 112.071289062 240.46875 122 c 0
 394.46875 133 436.46875 121 433.46875 64 c 0
 430.052734375 -0.91015625 356.46875 11 232.46875 0 c 0
 148.583984375 -7.44140625 114.46875 -12 82.46875 -12 c 0
 44.8076171875 -12 15.8974609375 -5.0107421875 16.46875 27 c 0
103.004882812 7 m 4
 59.0048828125 -31 -20.7705078125 8.2412109375 49.0048828125 78 c 4
 163.245117188 192.212890625 302.004882812 328.490234375 302.004882812 443 c 4
 302.004882812 485.305664062 284.8125 531.509765625 220.8125 535.509765625 c 4
 156.8125 539.509765625 138.8125 505.509765625 110.8125 483.509765625 c 4
 82.8125 461.509765625 21.2626953125 473.159179688 41.8125 548.509765625 c 4
 56.8125 603.509765625 144.8125 653.509765625 238.8125 647.509765625 c 4
 332.8125 641.509765625 418.8125 588.215820312 418.8125 445.509765625 c 4
 418.8125 275 282.3203125 161.864257812 103.004882812 7 c 4
EndSplineSet
EndChar

StartChar: h
Encoding: 104 104 31
Width: 542
Flags: HW
LayerCount: 2
Fore
SplineSet
87.80078125 586 m 0
 105.801757812 630 140.634765625 663.166015625 167.80078125 636 c 0
 188.80078125 615 181.80078125 436 181.80078125 362 c 0
 181.80078125 288 172.80078125 133.602539062 172.80078125 120 c 0
 172.80078125 92 168.94140625 52.5390625 159.80078125 37 c 0
 149.80078125 20 135.80078125 0 107.80078125 0 c 0
 87.357421875 0 77.80078125 21 77.80078125 36 c 0
 77.80078125 148.040039062 75.6396484375 238.249023438 77.2099609375 312 c 0
 78.87109375 389.982421875 79.337890625 565.314453125 87.80078125 586 c 0
44.80078125 332 m 0
 124.551757812 409.258789062 220.80078125 437 308.80078125 437 c 0
 396.80078125 437 472.80078125 400 487.80078125 383 c 0
 502.80078125 366 495.80078125 306 468.80078125 300 c 0
 441.80078125 294 426.80078125 325 307.80078125 328 c 0
 188.80078125 331 126.813476562 233.510742188 56.80078125 235 c 0
 9.80078125 236 12.80078125 301 44.80078125 332 c 0
401.80078125 608 m 0
 415.80078125 640 460.634765625 652.166015625 487.80078125 625 c 0
 508.80078125 604 501.80078125 436 501.80078125 362 c 0
 501.80078125 288 492.80078125 147.602539062 492.80078125 134 c 0
 492.80078125 106 490.411132812 68.8310546875 478.80078125 34 c 0
 472.80078125 16 458.7890625 0.6982421875 438.80078125 0 c 0
 419.00390625 -0.69140625 398.80078125 21 397.80078125 54 c 0
 394.80078125 102 397.203125 233.993164062 397.209960938 312 c 0
 397.209960938 390 392.8359375 587.508789062 401.80078125 608 c 0
EndSplineSet
EndChar

StartChar: three
Encoding: 51 51 32
Width: 549
Flags: HW
LayerCount: 2
Fore
SplineSet
76.4638671875 569 m 0
 77.4638671875 625 141.458984375 634.071289062 280.463867188 644 c 0
 434.463867188 655 486.463867188 643 483.463867188 586 c 0
 480.047851562 521.08984375 396.463867188 543 272.463867188 532 c 0
 188.579101562 524.55859375 174.463867188 520 142.463867188 520 c 0
 104.802734375 520 75.892578125 536.989257812 76.4638671875 569 c 0
475.017578125 538.05859375 m 0
 450.997070312 492.05859375 417.700195312 450.682617188 376 410 c 0
 335 370 304.9453125 351.3203125 268 322 c 0
 231.0546875 292.6796875 221.434632302 290.908417979 204.404296875 311.357421875 c 0
 189.094726562 329.740234375 183.123326196 354.150486944 215.07421875 388.684570312 c 0
 257 434 302 482 330 524 c 0
 399.060546875 627.58984375 390.973622439 656.999970913 455.463867188 634 c 0
 483.911132812 623.854492188 504.267583256 594.073239508 475.017578125 538.05859375 c 0
204.404296875 311.357421875 m 4
 196.65022533 325.074198313 241.741799646 353.283177888 254 360 c 4
 400 440 482.5 348.10546875 482.5 252 c 4
 482.5 137 434 0 216.5 -10 c 4
 71.5290602621 -16.6653305627 54.5 89 54.5 126 c 4
 54.5 150.819335938 74.9921875 174 106 174 c 4
 133 174 147.5 162 149.5 132 c 4
 151.777214118 97.8417882326 202.510749347 92.729046355 220.5 94 c 4
 330.493481808 101.771119505 370.5 162 370.5 240 c 4
 370.5 282.425626242 344.31640625 303.047851562 303 302 c 4
 269.993253981 301.162894997 221 282 204.404296875 311.357421875 c 4
EndSplineSet
EndChar

StartChar: four
Encoding: 52 52 33
Width: 510
Flags: HW
LayerCount: 2
Fore
SplineSet
22 254 m 0
 51.4400528395 362.66972998 103.095229608 548.21266473 109.969726562 599.669921875 c 0
 116.146659771 645.905747215 148.356445312 658.279296875 174.286132812 651.094726562 c 0
 197.595703125 644.63671875 206.873046875 628.421875 210.44921875 581.869140625 c 0
 214.026367188 535.31640625 169.472112625 347.307278388 117.927734375 219.19921875 c 0
 105.926757812 189.372070312 70.04296875 168.057617188 45.732421875 179.58984375 c 0
 23.8798828125 189.95703125 14.0955910996 224.823082909 22 254 c 0
386.272460938 491 m 0
 394.272460938 469 395.272460938 444 395.272460938 382 c 0
 395.272460938 320 394.272460938 337 394.272460938 322 c 0
 394.272460938 213.92578125 391.272460938 35 381.272460938 22 c 0
 371.272460938 9 361.272460938 0 336.272460938 0 c 0
 311.272460938 0 287.272460938 6 285.272460938 54 c 0
 283.272460938 102 280.272460938 483 286.272460938 501 c 0
 292.272460938 519 305.272460938 531 327.272460938 531 c 0
 349.272460938 531 376.180664062 518.751953125 386.272460938 491 c 0
26.4521484375 214 m 4
 27.4521484375 270 131.447265625 319.071289062 270.452148438 329 c 4
 424.452148438 340 486.452148438 328 483.452148438 271 c 4
 480.036132812 206.08984375 386.452148438 228 262.452148438 217 c 4
 178.567382812 209.55859375 124.73828125 182.458984375 92.4521484375 175 c 4
 55.7578125 166.522460938 25.880859375 181.989257812 26.4521484375 214 c 4
EndSplineSet
EndChar

StartChar: five
Encoding: 53 53 34
Width: 512
Flags: HW
LayerCount: 2
Fore
SplineSet
95 584 m 0
 101 639 133 638 292.452148438 653 c 0
 396.572265625 662.794921875 468.452148438 652 465.452148438 595 c 0
 462.036132812 530.08984375 358.9765625 547.565429688 284.452148438 541 c 0
 205 534 182 528 164.452148438 529 c 0
 126.852539062 531.142578125 91.5283203125 552.172851562 95 584 c 0
46.267578125 384.41015625 m 0
 75.7080078125 493.080078125 85.095703125 528.212890625 91.9697265625 579.669921875 c 0
 98.146484375 625.905273438 130.356445312 638.278320312 156.286132812 631.094726562 c 0
 179.595703125 624.63671875 201.7421875 616.609375 199 570 c 0
 196 519 193.740234375 477.717773438 142.1953125 349.609375 c 0
 130.194335938 319.782226562 94.310546875 298.467773438 70 310 c 0
 48.1474609375 320.3671875 38.36328125 355.233398438 46.267578125 384.41015625 c 0
56.404296875 322.357421875 m 0
 48.650390625 336.07421875 83.7421875 379.283203125 96 386 c 0
 242 466 464.5 418.10546875 464.5 252 c 0
 464.5 137 416 0 198.5 -10 c 0
 53.529296875 -16.6650390625 36.5 89 36.5 126 c 0
 36.5 150.819335938 56.9921875 174 88 174 c 0
 115 174 129.5 162 131.5 132 c 0
 133.77734375 97.841796875 184.510742188 92.7294921875 202.5 94 c 0
 312.493164062 101.771484375 352.5 162 352.5 240 c 0
 352.5 352.42578125 196.31640625 314.047851562 155 313 c 0
 121.993164062 312.163085938 73 293 56.404296875 322.357421875 c 0
EndSplineSet
EndChar

StartChar: six
Encoding: 54 54 35
Width: 541
Flags: HW
LayerCount: 2
Fore
SplineSet
220.250976562 569.357421875 m 0
 135 479 51.831049114 365.00000012 49.1875 242 c 0
 45.26171875 59.33984375 120 -10 249.1875 -10 c 0
 395.805967236 -10 492.051678231 76.2432631926 490.997903446 206.000002212 c 0
 489.915814136 339.243255212 407.337890625 401 293 401 c 0
 120.807617188 401 8 201 101.2890625 181.299804688 c 0
 131.278735278 174.966774906 149.708984375 184.528320312 154.043945312 215.678710938 c 0
 157.662109375 241.677734375 209 294 290 294 c 0
 345.500976562 294 394.8203125 272.177734375 394.61328125 202 c 0
 394.416015625 134.919921875 345.767751585 92 267.1875 92 c 0
 190 92 146.06016991 117.234421542 156.1875 259 c 0
 161.831035595 338.000001088 227.624023438 417.127929688 263 462 c 0
 353.504882812 576.796875 379 609 355.771484375 639.372070312 c 0
 327.297540737 676.602715276 262.682617188 614.331054688 220.250976562 569.357421875 c 0
EndSplineSet
Substitution2: "'ss03' Style Set 3 in Latin lookup 2-1" six.ss03
Substitution2: "'ss02' Style Set 2 in Latin lookup 1-1" six.ss02
EndChar

StartChar: six.ss02
Encoding: 257 -1 36
Width: 542
Flags: HW
LayerCount: 2
Fore
SplineSet
273 401 m 0
 387.337464301 401 489.915814136 339.243255212 490.997903446 206.000002212 c 0
 492.051678231 76.2432631926 395.805967236 -10 249.1875 -10 c 0
 120 -10 45.26171875 59.33984375 49.1875 242 c 0
 51.8310546875 365 85.8310546875 453 135.1875 525 c 0
 196.98046875 615.142578125 263.739257812 654 325.868164062 654 c 0
 409.868164062 654 444.868164062 616 450.868164062 584 c 0
 456.868164062 552 437.868164062 526 401.868164062 526 c 0
 368.807617188 526 372.793945312 546.504882812 337.868164062 549 c 0
 295.868164062 552 241.513671875 523.209960938 206.1875 452 c 0
 180.793945312 400.8125 161.831054688 358 156.1875 259 c 0
 148.098632812 117.103515625 190 92 267.1875 92 c 0
 345.767751585 92 394.416015625 134.919921875 394.61328125 202 c 4
 394.8203125 272.177734375 325.500811097 294 270 294 c 0
 239 294 142.232421875 279.94140625 116 279 c 0
 84.5695198219 277.871616132 68.9105761213 294.623044277 73 325 c 0
 77.9706281982 361.922065951 180.807296749 401 273 401 c 0
EndSplineSet
EndChar

StartChar: six.ss03
Encoding: 258 -1 37
Width: 541
Flags: HW
LayerCount: 2
Fore
SplineSet
220.250976562 569.357421875 m 0
 135 479 51.831049114 365.00000012 49.1875 242 c 0
 45.26171875 59.33984375 120 -10 249.1875 -10 c 0
 395.805967236 -10 492.051678231 76.2432631926 490.997903446 206.000002212 c 0
 489.915814136 339.243255212 387.337464301 401 273 401 c 0
 180.807296749 401 77.9706281982 361.922065951 73 325 c 0
 68.9105761213 294.623044277 84.5695198219 277.871616132 116 279 c 0
 142.232421875 279.94140625 239 294 270 294 c 0
 325.500811097 294 394.8203125 272.177734375 394.61328125 202 c 0
 394.416015625 134.919921875 345.767751585 92 267.1875 92 c 0
 190 92 148.098632812 117.103515625 156.1875 259 c 4
 161.831035595 358.000001088 227.624023438 417.127929688 263 462 c 0
 353.504882812 576.796875 379 609 355.771484375 639.372070312 c 0
 327.297540737 676.602715276 262.682617188 614.331054688 220.250976562 569.357421875 c 0
EndSplineSet
EndChar

StartChar: seven
Encoding: 55 55 38
Width: 515
Flags: HW
LayerCount: 2
Fore
SplineSet
40.4638671875 559 m 1
 40.4638671875 559 104 582 134 586 c 0
 164 590 169.034179688 530.870117188 161 468 c 0
 153.700195312 410.874023438 139.0703125 369.614257812 104.01953125 366.767578125 c 0
 68.9697265625 363.920898438 50.1630859375 393.170898438 51.3115234375 433.1796875 c 0
 53 492 44.3564453125 515 40.4638671875 559 c 1
466.41796875 538.05859375 m 0
 443.41796875 492.05859375 373.91796875 366.290039062 336.90625 287.943359375 c 0
 299.47265625 208.703125 257.427734375 76.5068359375 234.471679688 35.8974609375 c 0
 211.517578125 -4.7099609375 184.078125 -12.7734375 160.37890625 -0.0341796875 c 0
 139.075195312 11.4189453125 133.610351562 29.2822265625 140.415039062 75.474609375 c 0
 147.220703125 121.666015625 202.65625 269.982421875 256.403320312 381.80078125 c 0
 311.53515625 496.500976562 404 648 446 635 c 0
 475.053710938 626.006835938 494.424804688 594.073242188 466.41796875 538.05859375 c 0
40.4638671875 559 m 0
 41.4638671875 615 125.458984375 634.071289062 264.463867188 644 c 0
 418.463867188 655 480.463867188 643 477.463867188 586 c 0
 474.047851562 521.08984375 380.463867188 543 256.463867188 532 c 0
 172.579101562 524.55859375 138.463867188 520 106.463867188 520 c 0
 68.802734375 520 39.892578125 526.989257812 40.4638671875 559 c 0
EndSplineSet
EndChar

StartChar: eight
Encoding: 56 56 39
Width: 528
Flags: HW
LayerCount: 2
Fore
SplineSet
279.1484375 276.458984375 m 0
 207.9765625 275.48046875 140.657226562 247.459960938 138.700195312 178.662109375 c 0
 136.994140625 118.61328125 175.661132812 81.431640625 262.516601562 81.431640625 c 0
 340.1328125 81.431640625 386.220703125 110.0390625 384.485351562 188.116210938 c 0
 383.3359375 239.806640625 340.099609375 277.295898438 279.1484375 276.458984375 c 0
276.432617188 352.891601562 m 0
 372.060546875 352.891601562 488.961914062 311.149414062 488.961914062 183.349609375 c 0
 488.961914062 60.3173828125 399.0625 -10 252.854492188 -10 c 0
 96.765625 -10 32.7041015625 79.697265625 36.50390625 168.399414062 c 0
 42.5676137233 309.949815888 174.283203125 352.891601562 276.432617188 352.891601562 c 0
283.321289062 540.658203125 m 4
 217.178710938 539.815429688 171.790039062 515.659179688 169.97265625 456.345703125 c 4
 168.387695312 404.577148438 204.3203125 372.5234375 267.862304688 372.5234375 c 4
 322.822265625 372.5234375 365.65234375 397.184570312 364.038085938 464.49609375 c 4
 362.971679688 509.060546875 339.963867188 541.379882812 283.321289062 540.658203125 c 4
275.575195312 638.000976562 m 4
 359.032226562 638.000976562 461.458007812 601.80078125 461.458007812 474.600585938 c 4
 461.458007812 344.87890625 397.514648438 298.618164062 263.983398438 298.618164062 c 4
 120.018554688 298.618164062 61.3857421875 371.998046875 65.033203125 460.80078125 c 4
 70.400390625 591.4765625 186.426757812 638.000976562 275.575195312 638.000976562 c 4
EndSplineSet
EndChar

StartChar: nine
Encoding: 57 57 40
Width: 541
Flags: HW
LayerCount: 2
Fore
SplineSet
447.73828125 141.5703125 m 0
 465.73046875 213.798828125 488.215825886 275.748046755 490.859375 398.748046875 c 0
 494.78515625 581.408203125 420.046875 650.748046875 290.859375 650.748046875 c 0
 144.240234375 650.748046875 47.9951171875 564.504882812 49.048828125 434.748046875 c 0
 50.130859375 301.504882812 132.708984375 239.748046875 247.046875 239.748046875 c 0
 429.239257812 239.748046875 532.046875 439.748046875 438.7578125 459.448242188 c 0
 408.767578125 465.78125 390.337890625 456.219726562 386.002929688 425.069335938 c 0
 382.384765625 399.0703125 331.046875 346.748046875 250.046875 346.748046875 c 0
 194.545898438 346.748046875 145.2265625 368.5703125 145.43359375 438.748046875 c 0
 145.630859375 505.828125 194.279296875 548.748046875 272.859375 548.748046875 c 0
 350.046875 548.748046875 393.986740711 523.513642402 383.859375 381.748046875 c 0
 378.215820312 302.748046875 366.791015625 279.090820312 352.708007812 222.556640625 c 0
 316.688476562 77.955078125 307.2265625 8.099609375 344.490234375 2.5546875 c 0
 402.962890625 -6.1455078125 432.499023438 80.392578125 447.73828125 141.5703125 c 0
EndSplineSet
EndChar

StartChar: period
Encoding: 46 46 41
Width: 198
Flags: HMW
LayerCount: 2
Fore
SplineSet
30.1982421875 69.2998046875 m 0
 27.1123046875 112.071289062 60.4619140625 137.2734375 99.498046875 138.599609375 c 0
 143.170898438 140.083984375 166.48046875 108.671875 168.797851562 69.2998046875 c 0
 171.370117188 25.576171875 144.598632812 2.310546875 99.498046875 0 c 0
 55.2998046875 -2.2646484375 33.8662109375 18.4150390625 30.1982421875 69.2998046875 c 0
EndSplineSet
EndChar

StartChar: e
Encoding: 101 101 42
Width: 427
Flags: W
HStem: 0 91<230.163 419.204>
VStem: 29.0828 106<113.444 403.92>
LayerCount: 2
Fore
SplineSet
218.118164062 364 m 4
 263.662109375 370.461914062 292.118164062 376 327.118164062 363 c 4
 365.104492188 348.890625 365.63671875 296.362304688 338.118164062 280 c 4
 301.118164062 258 277.133789062 258.817382812 206.977539062 248.86328125 c 4
 161.43359375 242.401367188 124.715820312 228.528320312 76.0185546875 236.44140625 c 4
 18.5634765625 245.778320312 22.6005859375 304.2109375 52.6318359375 320.084960938 c 4
 97.232421875 343.66015625 147.961914062 354.045898438 218.118164062 364 c 4
145.626953125 437.416992188 m 0
 142.568359375 392.509765625 140.684570312 361.99609375 139.546875 289.873046875 c 0
 138.827148438 244.232421875 137.479492188 196.955078125 139.546875 158.7109375 c 0
 142.569335938 102.79296875 155.163085938 88.8173828125 197.083007812 91 c 0
 293.118164062 96 319.333007812 112.278320312 367.083007812 96 c 0
 411.083007812 81 414.850585938 18.4365234375 357.083007812 0 c 0
 310.083007812 -15 263.083007812 -16 217.083007812 -16 c 0
 101.083007812 -16 43.5234375 13.322265625 35.8603515625 113.047851562 c 0
 30.8359375 178.438476562 17.89453125 393.428710938 36.208984375 498.571289062 c 0
 52.88671875 594.314453125 101.409179688 617.840820312 216.258789062 634.13671875 c 0
 261.802734375 640.598632812 298.520507812 644.471679688 347.217773438 636.55859375 c 0
 404.672851562 627.221679688 400.635742188 568.7890625 370.604492188 552.915039062 c 0
 326.00390625 529.33984375 275.118164062 530 205.118164062 519 c 0
 163.650390625 512.483398438 149.71875 497.484375 145.626953125 437.416992188 c 0
EndSplineSet
EndChar

StartChar: comma
Encoding: 44 44 43
Width: 198
Flags: HW
HStem: -4.4 23.1G<92.6469 120.147> 678.7 22G<84.3969 108.597>
VStem: 51.3969 119.9<53.1989 678.893>
LayerCount: 2
Fore
SplineSet
36.16015625 89.1796875 m 0
 56 126 88.9045828378 150.127292211 123.916015625 132.8125 c 0
 166 112 153.796875 70.994140625 137.548828125 35.0556640625 c 0
 100 -48 19 -110 -19.703125 -76.544921875 c 0
 -55.480487817 -45.6188799043 5.68535005975 32.6221913099 36.16015625 89.1796875 c 0
EndSplineSet
EndChar

StartChar: o
Encoding: 111 111 44
Width: 516
Flags: HW
LayerCount: 2
Fore
SplineSet
274.92578125 523.379882812 m 4
 202.521484375 521.286132812 143.436523438 461.362304688 141.446289062 314.220703125 c 4
 139.708984375 185.796875 188.446289062 106.2734375 258.005859375 106.2734375 c 4
 318.166015625 106.2734375 374.452148438 167.456054688 372.686523438 334.440429688 c 4
 371.516601562 444.98828125 336.931640625 525.172851562 274.92578125 523.379882812 c 4
271.0703125 638 m 0
 359.0703125 638 477.0703125 561 477.0703125 349 c 0
 477.0703125 82.796875 376.0703125 -10 248.0703125 -10 c 0
 110.0703125 -10 35.2236328125 127.997070312 39.0703125 326 c 0
 43.3037109375 543.874023438 177.0703125 638 271.0703125 638 c 0
EndSplineSet
EndChar

StartChar: w
Encoding: 119 119 45
Width: 614
Flags: HW
LayerCount: 2
Fore
SplineSet
300.190429688 288.662109375 m 1
 265.000976562 151 240.000976562 0.0458984375 174.161132812 0.3193359375 c 0
 105.026367188 0.6064453125 89.8759765625 92.556640625 46.478515625 466.109375 c 0
 31.4609375 595.377929688 54.8642578125 627.681640625 84.72265625 630.587890625 c 0
 114.58203125 633.495117188 136.420898438 594.66015625 153.997070312 486.623046875 c 0
 181.513671875 317.493164062 187.828125 221.654296875 187.828125 221.654296875 c 1
 187.828125 221.654296875 199.76171875 321.211914062 207.000976562 364 c 0
 220.875 446.004882812 241.895507812 518.587890625 299.72265625 518.587890625 c 0
 355.345703125 518.587890625 376.720703125 437.215820312 393.000976562 356 c 0
 402.477539062 308.725585938 417.489257812 222.330078125 417.489257812 222.330078125 c 1
 417.489257812 222.330078125 426.416992188 320.252929688 458.541992188 488.568359375 c 0
 479.063476562 596.0859375 501.954101562 634.309570312 531.72265625 630.587890625 c 0
 561.491210938 626.8671875 584.001953125 593.936523438 565.459960938 465.125976562 c 0
 511.876953125 92.8974609375 482.677734375 1.8603515625 415.000976562 0 c 0
 348.280273438 -1.833984375 325.000976562 171 300.190429688 288.662109375 c 1
EndSplineSet
EndChar

StartChar: exclam
Encoding: 33 33 46
Width: 218
Flags: HW
LayerCount: 2
Fore
SplineSet
39.71484375 69.2998046875 m 0
 36.62890625 112.071289062 69.978515625 137.2734375 109.014648438 138.599609375 c 0
 152.6875 140.083984375 175.997070312 108.671875 178.314453125 69.2998046875 c 0
 180.88671875 25.576171875 154.115234375 2.310546875 109.014648438 0 c 0
 64.81640625 -2.2646484375 43.3828125 18.4150390625 39.71484375 69.2998046875 c 0
156.272460938 601 m 4
 164.272460938 579 165.272460938 554 165.272460938 492 c 4
 165.272460938 430 164.272460938 390 164.272460938 362 c 4
 164.272460938 283.92578125 161.272460938 225 151.272460938 212 c 4
 141.272460938 199 131.272460938 190 106.272460938 190 c 4
 81.2724609375 190 57.2724609375 196 55.2724609375 244 c 4
 53.2724609375 292 50.2724609375 593 56.2724609375 611 c 4
 62.2724609375 629 75.2724609375 641 97.2724609375 641 c 4
 119.272460938 641 146.180664062 628.751953125 156.272460938 601 c 4
EndSplineSet
EndChar

StartChar: question
Encoding: 63 63 47
Width: 444
Flags: HW
LayerCount: 2
Fore
SplineSet
109.71875 69.2998046875 m 0
 106.6328125 112.071289062 139.982421875 137.2734375 179.018554688 138.599609375 c 0
 222.69140625 140.083984375 246.000976562 108.671875 248.318359375 69.2998046875 c 0
 250.890625 25.576171875 224.119140625 2.310546875 179.018554688 0 c 0
 134.8203125 -2.2646484375 113.38671875 18.4150390625 109.71875 69.2998046875 c 0
193.79296875 277.317382812 m 0
 162.4296875 276.729492188 136.507805314 295.93490763 138.4765625 317 c 0
 141 344 155.848632812 356.588867188 202.842773438 366.05859375 c 0
 253.822265625 376.331054688 292.00390625 398.490234375 292.00390625 453 c 0
 292.00390625 495.305664062 274.811523438 531.509765625 210.811523438 535.509765625 c 0
 146.811523438 539.509765625 128.811523438 505.509765625 100.811523438 483.509765625 c 0
 72.8115234375 461.509765625 11.26171875 473.159179688 31.8115234375 548.509765625 c 0
 46.8115234375 603.509765625 134.811523438 653.509765625 228.811523438 647.509765625 c 0
 322.811523438 641.509765625 408.811523438 598.215820312 408.811523438 455.509765625 c 0
 408.811523438 345 320.801757812 279.696289062 193.79296875 277.317382812 c 0
138.00390625 252 m 0
 136.127929688 265.504882812 137.003757492 291.000008426 138.4765625 317 c 0
 139.775390625 339.928710938 166.135742188 354 192 354 c 0
 214.194335938 354 233.51971138 335.979575759 231.00390625 312 c 0
 229.008789062 292.983398438 231.00390625 281 233.00390625 253 c 0
 234.807617188 227.74609375 229.749023438 198 192.00390625 195 c 0
 153.823242188 191.965820312 143.00390625 216 138.00390625 252 c 0
EndSplineSet
EndChar

StartChar: hyphen
Encoding: 45 45 48
Width: 427
Flags: HW
LayerCount: 2
Fore
SplineSet
218.118164062 364 m 4
 263.662109375 370.461914062 292.118164062 376 327.118164062 363 c 4
 365.104492188 348.890625 365.63671875 296.362304688 338.118164062 280 c 4
 301.118164062 258 277.133789062 258.817382812 206.977539062 248.86328125 c 4
 161.43359375 242.401367188 124.715820312 228.528320312 76.0185546875 236.44140625 c 4
 18.5634765625 245.778320312 22.6005859375 304.2109375 52.6318359375 320.084960938 c 4
 97.232421875 343.66015625 147.961914062 354.045898438 218.118164062 364 c 4
EndSplineSet
EndChar

StartChar: plus
Encoding: 43 43 49
Width: 427
Flags: HW
LayerCount: 2
Fore
SplineSet
237.375976562 364 m 0
 282.919921875 370.461914062 311.375976562 376 346.375976562 363 c 0
 384.362304688 348.890625 384.89453125 296.362304688 357.375976562 280 c 0
 320.375976562 258 296.391601562 258.817382812 226.235351562 248.86328125 c 0
 180.69140625 242.401367188 143.973632812 228.528320312 95.2763671875 236.44140625 c 0
 37.8212890625 245.778320312 41.8583984375 304.2109375 71.8896484375 320.084960938 c 0
 116.490234375 343.66015625 167.219726562 354.045898438 237.375976562 364 c 0
260.772460938 444.342773438 m 4
 268.772460938 425.971679688 269.772460938 392.521484375 269.772460938 355.409179688 c 4
 269.772460938 318.297851562 268.772460938 294.354492188 268.772460938 277.594726562 c 4
 268.772460938 230.861328125 265.772460938 176.9296875 255.772460938 162.592773438 c 4
 245.772460938 148.255859375 235.772460938 138.328125 210.772460938 138.328125 c 4
 185.772460938 138.328125 161.772460938 144.946289062 159.772460938 197.883789062 c 4
 157.772460938 250.822265625 154.772460938 437.663085938 160.772460938 452.692382812 c 4
 166.772460938 467.72265625 179.772460938 477.744140625 201.772460938 477.744140625 c 4
 223.772460938 477.744140625 250.680664062 467.516601562 260.772460938 444.342773438 c 4
EndSplineSet
EndChar

StartChar: quotedbl
Encoding: 34 34 50
Width: 322
Flags: HW
LayerCount: 2
Fore
SplineSet
283.544921875 464.430664062 m 0
 273.454101562 449.197265625 257 442 235 442 c 0
 213 442 193 451 183 465 c 0
 176.282226562 474.404296875 180.600585938 580.536132812 182.544921875 620.834960938 c 0
 184 651 205 665 230 665 c 0
 255 665 271.155273438 651.551757812 279 639 c 0
 289 623 291.544921875 602.154296875 291.544921875 572.88671875 c 0
 291.544921875 555.22265625 292.544921875 534.137695312 292.544921875 522.890625 c 0
 292.544921875 498.49609375 291.544921875 476.5078125 283.544921875 464.430664062 c 0
128 646 m 0
 136 633.922851562 142.544921875 608.50390625 142.544921875 584.109375 c 0
 142.544921875 572.862304688 141.544921875 551.77734375 141.544921875 534.11328125 c 0
 141.544921875 504.845703125 138.545408312 470.215374555 128.544921875 459.302734375 c 0
 118.544921875 448.390625 102 438 77 438 c 0
 52 438 34.5448735245 445.870114788 32.544921875 486.165039062 c 0
 30.544921875 526.4609375 29 632.122070312 35 642 c 0
 41 651.881835938 52.544921875 664.525390625 74.544921875 664.525390625 c 0
 96.544921875 664.525390625 117.908203125 661.232421875 128 646 c 0
EndSplineSet
EndChar

StartChar: quotesingle
Encoding: 39 39 51
Width: 172
Flags: HW
LayerCount: 2
Fore
SplineSet
133.544921875 642.569335938 m 0
 141.544921875 630.4921875 142.544921875 608.50390625 142.544921875 584.109375 c 0
 142.544921875 572.862304688 141.544921875 551.77734375 141.544921875 534.11328125 c 0
 141.544921875 504.845703125 138.544921875 470.215820312 128.544921875 459.302734375 c 0
 118.544921875 448.390625 108.544921875 440.833984375 83.544921875 440.833984375 c 0
 58.544921875 440.833984375 34.544921875 445.870117188 32.544921875 486.165039062 c 0
 30.544921875 526.4609375 27.544921875 638.178710938 33.544921875 648.056640625 c 0
 39.544921875 657.938476562 52.544921875 664.525390625 74.544921875 664.525390625 c 0
 96.544921875 664.525390625 123.453125 657.801757812 133.544921875 642.569335938 c 0
EndSplineSet
EndChar

StartChar: colon
Encoding: 58 58 52
Width: 198
Flags: HW
LayerCount: 2
Fore
SplineSet
30.1982421875 359.299804688 m 4
 29 402 60.4758711517 426.91194868 99.498046875 428.599609375 c 4
 155 431 171.010007118 398.422557721 168.797851562 359.299804688 c 4
 166.423281276 317.30468974 148.8828125 292.822265625 106 290 c 4
 54.1865234375 286.590820312 31.6280979543 308.345898084 30.1982421875 359.299804688 c 4
30.1982421875 69.2998046875 m 0
 27.1123046875 112.071289062 60.4619140625 137.2734375 99.498046875 138.599609375 c 0
 143.170898438 140.083984375 166.48046875 108.671875 168.797851562 69.2998046875 c 0
 171.370117188 25.576171875 144.598632812 2.310546875 99.498046875 0 c 0
 55.2998046875 -2.2646484375 33.8662109375 18.4150390625 30.1982421875 69.2998046875 c 0
EndSplineSet
EndChar

StartChar: semicolon
Encoding: 59 59 53
Width: 198
Flags: HW
HStem: -4.4 23.1G<92.6469 120.147> 678.7 22G<84.3969 108.597>
VStem: 51.3969 119.9<53.1989 678.893>
LayerCount: 2
Fore
SplineSet
30.1982421875 359.299804688 m 0
 33.769662175 406.230174161 61 424 96 426 c 0
 151.462890625 429.168945312 166 402 168.797851562 359.299804688 c 0
 171.548002076 317.327612278 146 292 106 290 c 0
 54.139272835 287.406963642 26.3302869907 308.472803908 30.1982421875 359.299804688 c 0
36.16015625 89.1796875 m 0
 60.6125769211 123.112473061 94.5458984375 162.16015625 128 142 c 0
 176.947265625 112.50390625 154.2907874 70.3691824372 137.548828125 35.0556640625 c 0
 98.5015196966 -47.3061324874 7 -106 -27 -64 c 0
 -56.7553042705 -27.2434476658 0 39 36.16015625 89.1796875 c 0
EndSplineSet
EndChar

StartChar: dollar
Encoding: 36 36 54
Width: 516
Flags: HW
LayerCount: 2
Fore
SplineSet
262.5 555 m 0
 195.5 555 138.5 501 138.5 440 c 0
 138.5 399.74609375 156.37890625 383 182.5 383 c 0
 249.5 383 264.5 405 342.5 405 c 0
 430.5 405 482.5 332.10546875 482.5 226 c 0
 482.5 124 447 -10 236.5 -10 c 0
 169.873046875 -10 103.213867188 16.6357421875 62.69140625 80 c 0
 18.994140625 148.329101562 56.166015625 192.041015625 111.69140625 144 c 0
 143.576171875 116.413085938 173.104442681 94 230.5 94 c 0
 340 94 378.5 142 378.5 220 c 0
 378.5 268 353.5 309 313.5 309 c 0
 249.462890625 309 218.5 280 150.5 280 c 0
 82.5 280 33.5 337 33.5 417 c 0
 33.5 597 220.5 655 286.5 655 c 0
 353.126953125 655 409.786132812 628.364257812 450.30859375 565 c 0
 494.005859375 496.670898438 456.833984375 452.958984375 401.30859375 501 c 0
 369.423828125 528.586914062 319.895507812 555 262.5 555 c 0
331.208007812 678.5 m 0
 337.4921875 655.94921875 336.56640625 630.947265625 331.798828125 569.130859375 c 0
 327.030273438 507.314453125 319.879882812 427.627929688 311.57421875 319.947265625 c 0
 303.262695312 212.193359375 279.588867188 -55.7041015625 268.619140625 -67.8974609375 c 0
 257.649414062 -80.08984375 246.986328125 -88.2939453125 222.060546875 -86.3720703125 c 0
 197.134765625 -84.44921875 173.666992188 -76.62109375 175.364257812 -28.609375 c 0
 177.0625 19.4033203125 224.90625 678.67578125 232.2734375 696.16015625 c 0
 239.639648438 713.645507812 253.524414062 724.611328125 275.458984375 722.918945312 c 0
 297.393554688 721.2265625 323.280273438 706.946289062 331.208007812 678.5 c 0
EndSplineSet
EndChar

StartChar: S.ss04
Encoding: 259 -1 55
Width: 516
Flags: HW
LayerCount: 2
Fore
SplineSet
230.5 94 m 0
 340 94 378.5 142 378.5 220 c 0
 378.5 268 353.5 309 313.5 309 c 0
 249.462890625 309 218.5 280 150.5 280 c 0
 82.5 280 33.5 337 33.5 417 c 0
 33.5 597 220.5 655 286.5 655 c 0
 352.5 655 408 617 410 534 c 0
 411.112304688 487.83984375 396.5 465 360.5 465 c 0
 344.5 465 310 476 309 502 c 0
 307.380859375 544.1015625 295.560546875 555 262.5 555 c 0
 195.5 555 138.5 501 138.5 440 c 0
 138.5 399.74609375 156.37890625 383 182.5 383 c 0
 249.5 383 264.5 405 342.5 405 c 0
 430.5 405 482.5 332.10546875 482.5 226 c 0
 482.5 124 447 -10 236.5 -10 c 0
 169.873046875 -10 103.213867188 16.6357421875 62.69140625 80 c 4
 18.994140625 148.329101562 56.166015625 192.041015625 111.69140625 144 c 4
 143.576171875 116.413085938 173.104442681 94 230.5 94 c 0
EndSplineSet
EndChar

StartChar: a
Encoding: 97 97 56
Width: 530
Flags: W
HStem: 230 115<215.56 319.967>
VStem: 47.0581 93<24.1826 120.494> 419.058 93<7.73221 86.3911>
LayerCount: 2
Fore
SplineSet
39.0576171875 234 m 0
 118.80859375 311.258789062 173.057617188 345 269.057617188 345 c 0
 371.057617188 345 410.057617188 303 425.057617188 286 c 0
 440.057617188 269 455.057617188 208 428.057617188 202 c 0
 401.057617188 196 423.095703125 230 304.057617188 230 c 0
 100.057617188 230 104.057617188 137 51.0576171875 137 c 0
 4.046875 137 7.0576171875 203 39.0576171875 234 c 0
193.057617188 603 m 4
 209.057617188 631 238.057617188 644.850585938 278.057617188 635 c 4
 318.092773438 625.140625 342.057617188 565 386.057617188 449 c 4
 430.057617188 333 504.057617188 122 512.057617188 76 c 4
 520.057617188 30 515.057617188 12 494.057617188 0 c 4
 470.6953125 -13.349609375 443.057617188 -6 419.057617188 34 c 4
 395.057617188 74 336.057617188 285 308.057617188 363 c 4
 280.057617188 441 266.057617188 483 266.057617188 483 c 5
 236.65234375 437.2578125 193.057617188 228 177.057617188 172 c 4
 161.057617188 116 156.057617188 99 140.057617188 59 c 4
 124.057617188 19 91.0576171875 -4 69.0576171875 0 c 4
 47.0576171875 4 34.251953125 31.1591796875 47.0576171875 94 c 4
 65.8271484375 186.104492188 169.829101562 562.349609375 193.057617188 603 c 4
EndSplineSet
EndChar

StartChar: b
Encoding: 98 98 57
Width: 509
Flags: HW
LayerCount: 2
Fore
SplineSet
98.2177734375 610 m 5
 98.2177734375 610 184.217773438 658 280.217773438 658 c 4
 371.217773438 658 456.217773438 604 456.217773438 493 c 4
 456.217773438 428.96875 409.123046875 377.171875 371.857421875 353 c 4
 334.857421875 329 202.217773438 300 168.217773438 325 c 4
 134.217773438 350 137.857421875 361 159.857421875 371 c 4
 181.857421875 381 226.857421875 343 278.857421875 376 c 4
 330.857421875 409 340.217773438 446 340.217773438 473 c 4
 340.217773438 532 303.217773438 552 258.217773438 552 c 4
 185.217773438 552 118.217773438 482 92.2177734375 481 c 4
 66.2177734375 480 32.2177734375 473 34.2177734375 524 c 4
 36.2177734375 575 98.2177734375 610 98.2177734375 610 c 5
104.217773438 499 m 4
 108.217773438 545 117.524414062 622.346679688 180.217773438 591 c 4
 206.217773438 578 199.094726562 530.609375 197.169921875 411 c 4
 195.231445312 290.490234375 194.225585938 78.052734375 192.217773438 64 c 4
 188.217773438 36 170.217773438 4 144.217773438 0 c 4
 118.217773438 -4 96.2177734375 19 96.2177734375 53 c 4
 96.2177734375 101.041992188 94.62890625 268.987304688 96.2177734375 327 c 4
 98.2177734375 400 100.217773438 453 104.217773438 499 c 4
438.857421875 92 m 4
 372.34375 14.9765625 280.543945312 -10.2392578125 210.857421875 -10 c 4
 172.08984375 -9.8671875 129.977539062 -3.4931640625 115.857421875 8 c 4
 76.2744140625 40.220703125 140.841796875 88.599609375 166.857421875 89 c 4
 231.857421875 90 313.52734375 86.0234375 353.857421875 151 c 4
 371.857421875 180 384.21484375 237.911132812 340.041992188 277.022460938 c 4
 304.852539062 308.1796875 267.44140625 304.577148438 207.857421875 289 c 4
 181.537109375 282.119140625 170.857421875 274 152.857421875 270 c 4
 129.267578125 264.7578125 108.036132812 275.970703125 111.857421875 318 c 4
 115.678710938 360.028320312 156.078125 372.532226562 229.296875 385.763671875 c 4
 311.981445312 400.706054688 341.041015625 392.263671875 406.857421875 346 c 4
 481.73046875 293.372070312 498.315429688 160.852539062 438.857421875 92 c 4
EndSplineSet
EndChar

StartChar: c
Encoding: 99 99 58
Width: 495
Flags: HW
LayerCount: 2
Fore
SplineSet
364.192382812 430 m 0
 362.88671875 406.499023438 361.981445312 380.438476562 391.192382812 380 c 0
 409.301757812 379.728515625 455.192382812 400 453.192382812 494 c 0
 451.192382812 588 401.192382812 648 317.192382812 648 c 0
 255.063476562 648 184.985351562 615.142578125 123.192382812 525 c 0
 73.8359375 453 39.8359375 365 37.1923828125 242 c 0
 33.2666015625 59.33984375 143.192382812 -4 237.192382812 -10 c 0
 331.192382812 -16 400.479492188 16.6357421875 441.000976562 80 c 4
 484.698242188 148.329101562 447.526367188 192.041015625 392.000976562 144 c 4
 360.116210938 116.413085938 319.192382812 88 255.192382812 92 c 0
 191.192382812 96 136.103515625 117.103515625 144.192382812 259 c 0
 149.8359375 358 168.555664062 400.93359375 194.192382812 452 c 0
 229.8359375 523 271.223632812 548.333007812 305.192382812 550 c 0
 350.53125 552.224609375 368.192382812 502 364.192382812 430 c 0
EndSplineSet
Substitution2: "'ss01' Style Set 1 in Latin lookup 0-1" C.ss01
EndChar

StartChar: d
Encoding: 100 100 59
Width: 530
Flags: HW
LayerCount: 2
Fore
SplineSet
107.217773438 499 m 0
 111.217773438 545 120.524414062 622.346679688 183.217773438 591 c 0
 209.217773438 578 202.094726562 530.609375 200.169921875 411 c 0
 198.231445312 290.490234375 197.225585938 78.052734375 195.217773438 64 c 0
 191.217773438 36 173.217773438 4 147.217773438 0 c 0
 121.217773438 -4 99.2177734375 19 99.2177734375 53 c 0
 99.2177734375 101.041992188 97.62890625 268.987304688 99.2177734375 327 c 0
 101.217773438 400 103.217773438 453 107.217773438 499 c 0
492.866210938 351 m 0
 492.866210938 214.092773438 463.3984375 149.072265625 400.866210938 83 c 0
 347.866210938 27 263.543945312 -10.23828125 193.857421875 -10 c 0
 155.08984375 -9.8671875 132.977539062 -3.4931640625 118.857421875 8 c 0
 79.2744140625 40.220703125 143.841796875 88.599609375 169.857421875 89 c 0
 234.857421875 90 276.299804688 109.546875 310 141 c 0
 355 183 382.866210938 247.44921875 382.866210938 353 c 0
 382.866210938 499 336.217773438 552 261.217773438 552 c 0
 188.217773438 552 121.217773438 482 95.2177734375 481 c 0
 69.2177734375 480 35.2177734375 473 37.2177734375 524 c 0
 39.2177734375 575 101.217773438 610 101.217773438 610 c 1
 101.217773438 610 187.217773438 658 283.217773438 658 c 0
 404.217773438 658 492.866210938 553 492.866210938 351 c 0
EndSplineSet
EndChar

StartChar: f
Encoding: 102 102 60
Width: 427
Flags: W
HStem: 0 91<233.336 422.377>
VStem: 32.2559 106<113.444 403.92>
LayerCount: 2
Fore
SplineSet
221.291015625 330 m 0
 266.834960938 336.461914062 295.291015625 346 330.291015625 333 c 0
 368.27734375 318.890625 368.809570312 266.362304688 341.291015625 250 c 0
 304.291015625 228 280.306640625 224.817382812 210.150390625 214.86328125 c 0
 164.606445312 208.401367188 127.888671875 198.528320312 79.19140625 206.44140625 c 0
 21.736328125 215.778320312 25.7734375 274.2109375 55.8046875 290.084960938 c 0
 100.405273438 313.66015625 151.134765625 320.045898438 221.291015625 330 c 0
142.291015625 155 m 0
 142.291015625 84.4130859375 143.291015625 47 139.14453125 32.0478515625 c 0
 132.794921875 9.1533203125 116.14453125 0.0478515625 91.14453125 0.0478515625 c 0
 66.14453125 0.0478515625 43.111328125 6.09765625 40.14453125 54.0478515625 c 0
 38.291015625 84 22.58984375 394.631835938 39.3818359375 498.571289062 c 0
 54.880859375 594.512695312 99.58203125 617.840820312 214.431640625 634.13671875 c 0
 259.975585938 640.598632812 301.693359375 642.471679688 350.390625 634.55859375 c 0
 407.845703125 625.221679688 403.80859375 566.7890625 373.77734375 550.915039062 c 0
 329.176757812 527.33984375 273.291015625 530 203.291015625 519 c 0
 161.823242188 512.483398438 152.891601562 497.484375 148.799804688 437.416992188 c 0
 145.741210938 392.509765625 143.857421875 361.99609375 142.719726562 289.873046875 c 0
 142 244.232421875 142.291015625 190 142.291015625 155 c 0
EndSplineSet
EndChar

StartChar: g
Encoding: 103 103 61
Width: 542
Flags: HW
LayerCount: 2
Fore
SplineSet
337.868164062 549 m 4
 295.868164062 552 241.513671875 523.209960938 206.1875 452 c 4
 180.793945312 400.8125 161.831054688 358 156.1875 259 c 0
 148.098632812 117.103515625 203.1875 96 267.1875 92 c 0
 306.029296875 89.572265625 358.868164062 105 383.868164062 148 c 0
 391.97265625 161.939453125 393.53125 243.616210938 392.868164062 292 c 1
 392.868164062 292 369.930664062 286.298828125 341.868164062 287 c 0
 301.868164062 288 296.053710938 312.09375 298.868164062 333 c 0
 305.868164062 385 389.868164062 411 434.868164062 410 c 0
 479.868164062 409 488.868164062 391 491.868164062 300 c 0
 494.868164062 209 492.868164062 136 466.1875 89 c 0
 427.8359375 21.44140625 343.1875 -16 249.1875 -10 c 0
 155.1875 -4 45.26171875 59.33984375 49.1875 242 c 0
 51.8310546875 365 85.8310546875 453 135.1875 525 c 4
 196.98046875 615.142578125 263.739257812 654 325.868164062 654 c 4
 409.868164062 654 444.868164062 616 450.868164062 584 c 4
 456.868164062 552 437.868164062 526 401.868164062 526 c 4
 368.807617188 526 372.793945312 546.504882812 337.868164062 549 c 4
EndSplineSet
EndChar

StartChar: i
Encoding: 105 105 62
Width: 218
Flags: W
HStem: -4 21G<83.7722 108.772> 617 20G<76.2722 98.2722>
VStem: 46.2722 109<48.3627 617.176>
LayerCount: 2
Fore
SplineSet
156.272460938 601 m 4
 164.272460938 579 165.272460938 554 165.272460938 492 c 4
 165.272460938 430 164.272460938 430 164.272460938 322 c 4
 164.272460938 213.92578125 161.272460938 35 151.272460938 22 c 4
 141.272460938 9 131.272460938 0 106.272460938 0 c 4
 81.2724609375 0 57.2724609375 6 55.2724609375 54 c 4
 53.2724609375 102 50.2724609375 593 56.2724609375 611 c 4
 62.2724609375 629 75.2724609375 641 97.2724609375 641 c 4
 119.272460938 641 146.180664062 628.751953125 156.272460938 601 c 4
EndSplineSet
EndChar

StartChar: j
Encoding: 106 106 63
Width: 412
Flags: W
HStem: -4 21G<283.183 308.183> 617 20G<275.683 297.683>
VStem: 245.683 109<48.3627 617.176>
LayerCount: 2
Fore
SplineSet
362.411132812 184 m 0
 358.411132812 61 275.540039062 0 173.411132812 0 c 0
 89.4111328125 0 54.4111328125 38 48.4111328125 70 c 0
 42.4111328125 102 61.4111328125 128 97.4111328125 128 c 0
 130.471679688 128 136.485351562 117.495117188 171.411132812 115 c 0
 213.411132812 111.999023438 252.950195312 113.776367188 252.950195312 193.267578125 c 0
 251.810546875 353.962890625 251.55078125 598.6015625 255.68359375 611 c 0
 261.68359375 629 274.68359375 641 296.68359375 641 c 0
 318.68359375 641 345.591796875 628.751953125 355.68359375 601 c 0
 363.68359375 579 364.68359375 554 364.68359375 492 c 0
 364.68359375 430 363.68359375 430 363.68359375 322 c 0
 363.68359375 283.435546875 363.356445312 229.849609375 362.411132812 184 c 0
EndSplineSet
EndChar

StartChar: k
Encoding: 107 107 64
Width: 496
Flags: W
HStem: -4 21G<76.5468 101.547> 617 20G<69.0468 91.0468>
VStem: 39.0468 109<48.3627 617.176>
LayerCount: 2
Fore
SplineSet
149.046875 597 m 0
 157.046875 575 158.046875 550 158.046875 488 c 0
 158.046875 426 157.046875 430 157.046875 322 c 0
 157.046875 213.92578125 154.046875 35 144.046875 22 c 0
 134.046875 9 124.046875 0 99.046875 0 c 0
 74.046875 0 50.046875 6 48.046875 54 c 0
 46.046875 102 43.046875 589 49.046875 607 c 0
 55.046875 625 68.046875 637 90.046875 637 c 0
 112.046875 637 138.955078125 624.751953125 149.046875 597 c 0
441.245117188 520.490234375 m 0
 435.412109375 447.23046875 395.541015625 373.959960938 323.719726562 316.240234375 c 0
 260.12109375 265.127929688 164.842773438 207.459960938 127.84375 235.209960938 c 0
 90.845703125 262.959960938 108.256835938 309.580078125 132.197265625 320.6796875 c 0
 156.137695312 331.780273438 164.842773438 327.33984375 221.428710938 363.969726562 c 0
 278.015625 400.599609375 300.26953125 431.690429688 319.856445312 513.830078125 c 0
 334.360351562 574.65234375 345.319335938 647.322265625 398.413085938 629.26953125 c 0
 418.000976562 622.610351562 447.272460938 596.19140625 441.245117188 520.490234375 c 0
339.134765625 344 m 0
 398.134765625 317 441.5390625 270.333984375 449.184570312 160.485351562 c 0
 455.134765625 75 440.762695312 19.7236328125 408.1484375 -0.923828125 c 0
 381.256835938 -17.9482421875 331.715820312 -0.47265625 339.272460938 70.62109375 c 0
 348.134765625 154 340.134765625 248 277.134765625 267 c 0
 214.134765625 286 225.134765625 316 250.134765625 334 c 0
 285.625 359.552734375 310.596679688 357.059570312 339.134765625 344 c 0
EndSplineSet
EndChar

StartChar: l
Encoding: 108 108 65
Width: 419
Flags: W
HStem: 0 91<225.045 414.086>
VStem: 23.9651 106<113.444 403.92>
LayerCount: 2
Fore
SplineSet
51.96484375 596 m 0
 53.96484375 628 153.96484375 651.1171875 153.96484375 583 c 0
 153.96484375 538 145.068359375 417.250976562 135.96484375 287 c 0
 132.78125 241.46484375 129.96484375 214.299804688 129.96484375 176 c 0
 129.96484375 120 151.028320312 100.284179688 191.96484375 91 c 0
 288.96484375 69 314.21484375 112.278320312 361.96484375 96 c 0
 405.96484375 81 409.732421875 18.4365234375 351.96484375 0 c 0
 304.96484375 -15 267.96484375 -16 221.96484375 -16 c 0
 105.96484375 -16 26.2333984375 36.005859375 23.96484375 136 c 0
 21.6845703125 236.484375 50.4560546875 571.860351562 51.96484375 596 c 0
EndSplineSet
EndChar

StartChar: m
Encoding: 109 109 66
Width: 614
Flags: HW
LayerCount: 2
Fore
SplineSet
313.809570312 371.92578125 m 5
 345.19921875 453.26953125 381.612304688 642.481445312 449.838867188 630.268554688 c 4
 507.416015625 616.783203125 524.124023438 538.03125 567.521484375 164.478515625 c 4
 582.5390625 35.2099609375 559.135742188 2.90625 529.27734375 0 c 0
 499.41796875 -2.9072265625 477.579101562 35.927734375 460.002929688 143.96484375 c 4
 432.486328125 313.094726562 426.171875 408.93359375 426.171875 408.93359375 c 5
 426.171875 408.93359375 382.27734375 202 314.27734375 202 c 4
 246.27734375 202 196.510742188 408.2578125 196.510742188 408.2578125 c 5
 196.510742188 408.2578125 187.583007812 310.334960938 155.458007812 142.01953125 c 4
 134.936523438 34.501953125 112.045898438 -3.7216796875 82.27734375 0 c 0
 52.5087890625 3.720703125 29.99609375 36.6513671875 48.5400390625 165.461914062 c 4
 102.123046875 537.690429688 121.223632812 626.002929688 178.900390625 627.86328125 c 4
 245.614257812 629.927734375 281.583007812 450.666015625 313.809570312 371.92578125 c 5
EndSplineSet
EndChar

StartChar: n
Encoding: 110 110 67
Width: 514
Flags: HW
LayerCount: 2
Fore
SplineSet
95.1787109375 635 m 1
 38.1787109375 626 50.1787109375 536 43.1787109375 160 c 0
 40.755859375 29.8837890625 56.1787109375 0 86.1787109375 0 c 0
 116.178710938 0 135.15234375 40.767578125 142.178710938 150 c 0
 153.178710938 321 150.178710938 407 150.178710938 407 c 1
 150.178710938 407 200.025390625 302.3359375 264.178710938 162 c 0
 296.178710938 92 339.178710938 0 393.178710938 0 c 0
 447.178710938 0 473.178710938 69 471.178710938 350 c 0
 470.295898438 473.997070312 477.178710938 579 438.178710938 624 c 0
 405.748046875 661.419921875 367.178710938 639 367.178710938 599 c 4
 367.178710938 559 361.178710938 195 361.178710938 195 c 5
 361.178710938 195 294.653320312 348.8828125 267.178710938 405 c 0
 173.178710938 597 136.178710938 638 95.1787109375 635 c 1
EndSplineSet
EndChar

StartChar: p
Encoding: 112 112 68
Width: 487
Flags: HW
LayerCount: 2
Fore
SplineSet
96.5419921875 610 m 1
 96.5419921875 610 182.541992188 658 278.541992188 658 c 0
 369.541992188 658 454.541992188 594 454.541992188 483 c 0
 454.541992188 358.96875 388.541992188 293 322.272460938 248.44140625 c 0
 260.52734375 206.924804688 172.48828125 166.329101562 139.509765625 192.662109375 c 0
 106.532226562 218.995117188 124.190429688 260.32421875 146.5703125 269.44140625 c 0
 168.951171875 278.55859375 176.786132812 274.243164062 230.057617188 305.147460938 c 0
 283.329101562 336.052734375 338.541992188 396 338.541992188 463 c 0
 338.541992188 522 301.541992188 552 256.541992188 552 c 0
 183.541992188 552 116.541992188 482 90.5419921875 481 c 0
 64.5419921875 480 30.5419921875 473 32.5419921875 524 c 0
 34.5419921875 575 96.5419921875 610 96.5419921875 610 c 1
102.541992188 499 m 0
 106.541992188 545 115.848632812 622.346679688 178.541992188 591 c 0
 204.541992188 578 197.418945312 450.609375 195.494140625 331 c 0
 193.555664062 210.490234375 192.549804688 78.052734375 190.541992188 64 c 0
 186.541992188 36 168.541992188 4 142.541992188 0 c 0
 116.541992188 -4 94.5419921875 19 94.5419921875 53 c 0
 94.5419921875 101.041992188 92.953125 268.987304688 94.5419921875 327 c 0
 96.5419921875 400 98.5419921875 453 102.541992188 499 c 0
EndSplineSet
EndChar

StartChar: q
Encoding: 113 113 69
Width: 516
Flags: HW
LayerCount: 2
Fore
SplineSet
298 57 m 4
 271.671875 94.720703125 241.099609375 136.067382812 236.897460938 173.166015625 c 4
 232.336914062 213.430664062 278.966796875 237.62109375 305.990234375 220.454101562 c 4
 342.325195312 197.372070312 365.209960938 157.146484375 405.764648438 99.041015625 c 4
 432.091796875 61.3203125 461.047851562 34.8203125 475.97265625 -12.2041015625 c 4
 493.581054688 -67.685546875 439.620117188 -90.4638671875 411.897460938 -70.833984375 c 4
 370.725585938 -41.681640625 338.555664062 -1.10546875 298 57 c 4
274.92578125 523.379882812 m 0
 202.521484375 521.286132812 143.436523438 461.362304688 141.446289062 314.220703125 c 0
 139.708984375 185.796875 188.446289062 106.2734375 258.005859375 106.2734375 c 0
 318.166015625 106.2734375 374.452148438 167.456054688 372.686523438 334.440429688 c 0
 371.516601562 444.98828125 336.931640625 525.172851562 274.92578125 523.379882812 c 0
271.0703125 638 m 0
 359.0703125 638 477.0703125 561 477.0703125 349 c 0
 477.0703125 82.796875 376.0703125 -10 248.0703125 -10 c 0
 110.0703125 -10 35.2236328125 127.997070312 39.0703125 326 c 0
 43.3037109375 543.874023438 177.0703125 638 271.0703125 638 c 0
EndSplineSet
EndChar

StartChar: r
Encoding: 114 114 70
Width: 496
Flags: HW
LayerCount: 2
Fore
SplineSet
97.8603515625 610 m 1
 97.8603515625 610 183.860351562 658 279.860351562 658 c 0
 370.860351562 658 455.860351562 604 455.860351562 493 c 0
 455.860351562 428.96875 413.860351562 370 347.860351562 318 c 0
 289.416015625 271.953125 201.860351562 220 167.860351562 245 c 0
 133.860351562 270 149.860351562 312 171.860351562 322 c 0
 193.860351562 332 201.860351562 328 253.860351562 361 c 0
 305.860351562 394 339.860351562 426 339.860351562 473 c 0
 339.860351562 532 302.860351562 552 257.860351562 552 c 0
 184.860351562 552 117.860351562 482 91.8603515625 481 c 0
 65.8603515625 480 31.8603515625 473 33.8603515625 524 c 0
 35.8603515625 575 97.8603515625 610 97.8603515625 610 c 1
103.860351562 499 m 0
 107.860351562 545 117.166992188 622.346679688 179.860351562 591 c 0
 205.860351562 578 198.737304688 450.609375 196.8125 331 c 0
 194.874023438 210.490234375 193.868164062 78.052734375 191.860351562 64 c 0
 187.860351562 36 169.860351562 4 143.860351562 0 c 0
 117.860351562 -4 95.8603515625 19 95.8603515625 53 c 0
 95.8603515625 101.041992188 94.271484375 268.987304688 95.8603515625 327 c 0
 97.8603515625 400 99.8603515625 453 103.860351562 499 c 0
350.860351562 344 m 0
 409.860351562 317 453.264648438 270.333984375 460.91015625 160.485351562 c 0
 466.860351562 75 452.48828125 19.7236328125 419.874023438 -0.923828125 c 0
 392.982421875 -17.9482421875 353.44140625 -0.47265625 360.998046875 70.62109375 c 0
 369.860351562 154 351.860351562 248 288.860351562 267 c 0
 225.860351562 286 236.860351562 316 261.860351562 334 c 0
 297.350585938 359.552734375 322.322265625 357.059570312 350.860351562 344 c 0
EndSplineSet
EndChar

StartChar: s
Encoding: 115 115 71
Width: 516
Flags: HW
LayerCount: 2
Fore
SplineSet
262.5 555 m 0
 195.5 555 138.5 501 138.5 450 c 0
 138.5 419.74609375 156.37890625 403 182.5 403 c 0
 249.5 403 264.5 425 342.5 425 c 0
 430.5 425 482.5 352.10546875 482.5 266 c 0
 482.5 164 460.815429688 0.109375 216.5 -10 c 0
 71.5 -16 54.5 99 54.5 136 c 0
 54.5 160.819335938 74.9921875 184 106 184 c 0
 133 184 157.5 172 159.5 142 c 0
 161.77734375 107.841796875 172.502011458 92.7279790369 230.5 94 c 0
 340.703125 96.4169921875 378.5 162 378.5 240 c 0
 378.5 288 353.5 329 313.5 329 c 0
 249.462890625 329 218.5 300 150.5 300 c 0
 82.5 300 33.5 357 33.5 427 c 0
 33.5 597 220.5 655 286.5 655 c 0
 352.5 655 408 617 410 534 c 0
 411.112304688 487.83984375 396.5 465 360.5 465 c 0
 344.5 465 310 476 309 502 c 0
 307.380859375 544.1015625 295.560546875 555 262.5 555 c 0
EndSplineSet
Substitution2: "'ss04' Style Set 4 in Latin lookup 3-1" S.ss04
EndChar

StartChar: t
Encoding: 116 116 72
Width: 490
Flags: HW
LayerCount: 2
Fore
SplineSet
276.000976562 577 m 0
 284.000976562 555 285.000976562 530 285.000976562 468 c 0
 285.000976562 406 284.000976562 420 284.000976562 312 c 0
 284.000976562 203.92578125 283.452148438 105 269.452148438 55 c 0
 260.92578125 24.548828125 241.452148438 0 216.452148438 0 c 0
 191.452148438 0 175.452148438 18 175.000976562 50 c 0
 174.323242188 98.037109375 185.000976562 569 191.000976562 587 c 0
 197.000976562 605 215.000976562 617 237.000976562 617 c 0
 259.000976562 617 265.909179688 604.751953125 276.000976562 577 c 0
26.4521484375 524 m 4
 27.4521484375 580 111.447265625 629.071289062 250.452148438 639 c 4
 404.452148438 650 466.452148438 638 463.452148438 581 c 4
 460.036132812 516.08984375 366.452148438 538 242.452148438 527 c 4
 158.567382812 519.55859375 124.73828125 492.458984375 92.4521484375 485 c 4
 55.7578125 476.522460938 25.880859375 491.989257812 26.4521484375 524 c 4
EndSplineSet
EndChar

StartChar: u
Encoding: 117 117 73
Width: 497
Flags: HW
LayerCount: 2
Fore
SplineSet
54.509765625 591 m 0
 57.6064453125 624.591796875 87.509765625 636 104.509765625 636 c 0
 115.911132812 636 152.978515625 631.911132812 156.509765625 562 c 0
 166.509765625 364 122.509765625 247 142.509765625 152 c 0
 150.533203125 113.88671875 186.676757812 98.208984375 223.509765625 98 c 0
 336.4375 97.3603515625 363.509765625 230 363.509765625 396 c 0
 363.509765625 512 361.509765625 494 359.509765625 566 c 0
 357.509765625 638 384.509765625 644 408.509765625 644 c 0
 432.509765625 644 464.509765625 628 470.509765625 494 c 0
 476.509765625 360 472.509765625 224 425.509765625 117 c 0
 390.614257812 37.556640625 320.509765625 -10 214.509765625 -10 c 0
 68.509765625 -10 15.509765625 110 25.509765625 236 c 0
 35.509765625 362 41.509765625 450 54.509765625 591 c 0
EndSplineSet
EndChar

StartChar: v
Encoding: 118 118 74
Width: 549
Flags: HW
LayerCount: 2
Fore
SplineSet
329.584960938 29.05859375 m 0
 313.584960938 1.05859375 284.584960938 -12.7919921875 244.584960938 -2.94140625 c 0
 204.549804688 6.91796875 190.584960938 67.05859375 146.584960938 183.05859375 c 0
 102.584960938 299.05859375 48.5849609375 510.05859375 40.5849609375 556.05859375 c 0
 32.5849609375 602.05859375 37.5849609375 620.05859375 58.5849609375 632.05859375 c 0
 81.947265625 645.408203125 109.584960938 638.05859375 133.584960938 598.05859375 c 0
 157.584960938 558.05859375 213.013671875 354 234.584960938 269.05859375 c 0
 254.983398438 188.735351562 272.013671875 125 272.013671875 125 c 1
 282.442382812 181.94140625 353.013671875 408 371.584960938 460.05859375 c 0
 391.153320312 514.913085938 401.013671875 547 417.013671875 587 c 0
 433.013671875 627 457.013671875 637 479.013671875 633 c 0
 501.013671875 629 518.013671875 606 510.013671875 552 c 0
 493.908203125 443.287109375 352.813476562 69.708984375 329.584960938 29.05859375 c 0
EndSplineSet
EndChar

StartChar: x
Encoding: 120 120 75
Width: 495
Flags: HW
LayerCount: 2
Fore
SplineSet
452.41796875 538.05859375 m 4
 429.41796875 492.05859375 338.646484375 343.19140625 297.998046875 270.971679688 c 4
 255.012695312 194.600585938 154.524414062 53.26171875 123.181640625 18.712890625 c 4
 91.8388671875 -15.8349609375 63.2978515625 -17.6513671875 42.9892578125 0 c 4
 24.734375 15.8671875 23.3427734375 34.49609375 40.1640625 78.0517578125 c 4
 56.9853515625 121.606445312 160.40234375 274.15234375 225.831054688 379.5625 c 4
 290.834960938 484.288085938 369.41796875 665.05859375 434.41796875 642.05859375 c 4
 463.08984375 631.913085938 480.424804688 594.073242188 452.41796875 538.05859375 c 4
452.41796875 104 m 0
 480.424804688 47.9853515625 463.08984375 10.1455078125 434.41796875 0 c 0
 369.41796875 -23 290.834960938 141.770507812 225.831054688 246.49609375 c 0
 160.40234375 351.90625 66.9853515625 510.452148438 50.1640625 554.006835938 c 0
 33.3427734375 597.5625 34.734375 616.19140625 52.9892578125 632.05859375 c 0
 73.2978515625 649.709960938 101.838867188 647.893554688 133.181640625 613.345703125 c 0
 164.525390625 578.796875 255.012695312 431.458007812 297.998046875 355.086914062 c 0
 338.646484375 282.8671875 429.41796875 150 452.41796875 104 c 0
EndSplineSet
EndChar

StartChar: y
Encoding: 121 121 76
Width: 509
Flags: HW
LayerCount: 2
Fore
SplineSet
266.765625 344.936523438 m 28
 277.868164062 316.8203125 276.928710938 281.677734375 257.408203125 267.396484375 c 4
 235.69140625 251.509765625 196.447265625 265.716796875 179.06640625 292.764648438 c 28
 103.047851562 408.045898438 49.587890625 519.118164062 36.4765625 563.9296875 c 4
 23.365234375 608.741210938 26.3125 627.188476562 45.833984375 641.469726562 c 4
 67.5498046875 657.356445312 95.8388671875 653.154296875 124.17578125 616.1015625 c 4
 152.51171875 579.046875 224.412109375 456.79296875 266.765625 344.936523438 c 28
465.126953125 538.05859375 m 0
 441.106445312 492.05859375 347.034179688 343.19140625 304.784179688 270.971679688 c 0
 260.106445312 194.600585938 156.484375 53.26171875 124.375 18.712890625 c 0
 92.2666015625 -15.8349609375 63.6845703125 -17.6513671875 43.767578125 0 c 0
 25.865234375 15.8671875 24.88671875 34.49609375 42.673828125 78.0517578125 c 0
 60.4599609375 121.606445312 167.260742188 274.15234375 235.026367188 379.5625 c 0
 302.3515625 484.288085938 384.943359375 665.05859375 449.43359375 642.05859375 c 0
 477.880859375 631.913085938 494.375976562 594.073242188 465.126953125 538.05859375 c 0
EndSplineSet
EndChar

StartChar: z
Encoding: 122 122 77
Width: 549
Flags: HW
LayerCount: 2
Fore
SplineSet
56.4638671875 27 m 0
 57.4638671875 83 141.458984375 112.071289062 280.463867188 122 c 0
 434.463867188 133 496.463867188 121 493.463867188 64 c 0
 490.047851562 -0.91015625 396.463867188 11 272.463867188 0 c 0
 188.579101562 -7.44140625 154.463867188 -12 122.463867188 -12 c 0
 84.802734375 -12 55.892578125 -5.0107421875 56.4638671875 27 c 0
56.4638671875 559 m 4
 57.4638671875 615 141.458984375 634.071289062 280.463867188 644 c 4
 434.463867188 655 496.463867188 643 493.463867188 586 c 4
 490.047851562 521.08984375 396.463867188 533 272.463867188 522 c 4
 188.579101562 514.55859375 154.463867188 510 122.463867188 510 c 4
 84.802734375 510 55.892578125 526.989257812 56.4638671875 559 c 4
485.017578125 538.05859375 m 4
 460.997070312 492.05859375 366.924804688 343.19140625 324.674804688 270.971679688 c 4
 279.997070312 194.600585938 176.375 57.26171875 144.265625 22.712890625 c 4
 112.157226562 -11.8349609375 83.5751953125 -13.6513671875 63.658203125 4 c 4
 45.755859375 19.8671875 44.77734375 38.49609375 62.564453125 82.0517578125 c 4
 80.3505859375 125.606445312 187.15234375 274.15234375 254.916992188 379.5625 c 4
 322.2421875 484.288085938 400.973632812 657 465.463867188 634 c 4
 493.911132812 623.854492188 514.267578125 594.073242188 485.017578125 538.05859375 c 4
EndSplineSet
EndChar

StartChar: parenleft
Encoding: 40 40 78
Width: 308
Flags: HW
LayerCount: 2
Fore
SplineSet
39.0703125 319.98046875 m 0
 39 470.98046875 75.8505859375 558.233398438 171.231445312 666.114257812 c 0
 216.283203125 717.0703125 248.987304688 709.682617188 266.328125 694.572265625 c 0
 295.551757812 668.728515625 269.840820312 633.150390625 246.893554688 606.815429688 c 0
 222.540039062 578.8671875 134 499.98046875 134.0703125 320.470703125 c 0
 134 139.9609375 222.540039062 61.09375 246.893554688 33.1455078125 c 0
 269.840820312 6.810546875 295.551757812 -28.767578125 266.328125 -54.611328125 c 0
 248.987304688 -69.7216796875 216.283203125 -77.109375 171.231445312 -26.1533203125 c 0
 75.8515625 81.728515625 39 168.9609375 39.0703125 319.98046875 c 0
EndSplineSet
EndChar

StartChar: parenright
Encoding: 41 41 79
Width: 307
Flags: HW
LayerCount: 2
Fore
SplineSet
270.927734375 319.98046875 m 0
 270.998046875 168.9609375 234.146484375 81.728515625 138.766601562 -26.1533203125 c 0
 93.71484375 -77.109375 61.0107421875 -69.7216796875 43.669921875 -54.611328125 c 0
 14.4462890625 -28.767578125 40.1572265625 6.810546875 63.1044921875 33.1455078125 c 0
 87.4580078125 61.09375 175.998046875 139.9609375 175.927734375 320.470703125 c 0
 175.998046875 499.98046875 87.4580078125 578.8671875 63.1044921875 606.815429688 c 0
 40.1572265625 633.150390625 14.4462890625 668.728515625 43.669921875 694.572265625 c 0
 61.0107421875 709.682617188 93.71484375 717.0703125 138.766601562 666.114257812 c 0
 234.147460938 558.233398438 270.998046875 470.98046875 270.927734375 319.98046875 c 0
EndSplineSet
EndChar

StartChar: grave
Encoding: 96 96 80
Width: 208
Flags: HW
LayerCount: 2
Fore
SplineSet
173.018554688 499.186523438 m 0
 146.77734375 472.946289062 87.3544921875 505.913085938 48.0390625 545.228515625 c 0
 21.4140625 571.853515625 9.58984375 605.06640625 37.626953125 633.103515625 c 0
 65.43359375 660.91015625 98.9541015625 647.15234375 126.423828125 619.682617188 c 0
 164.755859375 581.350585938 197.649414062 523.818359375 173.018554688 499.186523438 c 0
EndSplineSet
EndChar

StartChar: asterisk
Encoding: 42 42 81
Width: 427
Flags: HW
LayerCount: 2
Fore
SplineSet
260.772460938 634.342773438 m 0
 268.772460938 615.971679688 269.772460938 582.521484375 269.772460938 545.409179688 c 0
 269.772460938 508.297851562 268.772460938 484.354492188 268.772460938 467.594726562 c 0
 268.772460938 420.861328125 265.772460938 366.9296875 255.772460938 352.592773438 c 0
 245.772460938 338.255859375 235.772460938 328.328125 210.772460938 328.328125 c 0
 185.772460938 328.328125 161.772460938 334.946289062 159.772460938 387.883789062 c 0
 157.772460938 440.822265625 154.772460938 627.663085938 160.772460938 642.692382812 c 0
 166.772460938 657.72265625 179.772460938 667.744140625 201.772460938 667.744140625 c 0
 223.772460938 667.744140625 250.680664062 657.516601562 260.772460938 634.342773438 c 0
210.47265625 557.694335938 m 0
 247.772460938 584.614257812 270.37890625 602.762695312 307.407226562 607.549804688 c 0
 347.59375 612.745117188 372.517578125 566.50390625 355.779296875 539.211914062 c 0
 333.274414062 502.516601562 311.666992188 492.076171875 254.208984375 450.606445312 c 0
 216.908203125 423.6875 190.870117188 394.31640625 144.087890625 378.651367188 c 0
 88.890625 360.16796875 65.2626953125 413.762695312 84.4521484375 441.791992188 c 0
 112.952148438 483.418945312 153.014648438 516.225585938 210.47265625 557.694335938 c 0
117.296875 608.103515625 m 0
 137.174804688 605.577148438 166.424804688 589.318359375 198.311523438 570.328125 c 0
 230.1953125 551.338867188 250.254882812 538.227539062 264.654296875 529.650390625 c 0
 304.805664062 505.737304688 349.606445312 475.5625 356.807617188 459.634765625 c 0
 364.0078125 443.70703125 367.419921875 430.03515625 354.627929688 408.556640625 c 0
 341.8359375 387.077148438 323.868164062 369.84375 277.36328125 395.213867188 c 0
 230.856445312 420.583984375 68.7958984375 513.614257812 58.953125 526.459960938 c 0
 49.109375 539.306640625 47.15234375 555.603515625 58.4091796875 574.504882812 c 0
 69.6669921875 593.407226562 92.22265625 611.291992188 117.296875 608.103515625 c 0
EndSplineSet
EndChar

StartChar: slash
Encoding: 47 47 82
Width: 352
Flags: HW
LayerCount: 2
Fore
SplineSet
331.900390625 571.188476562 m 4
 318.430664062 521.5546875 258.821289062 357.702148438 233.224609375 278.880859375 c 4
 206.155273438 195.529296875 135.53515625 37.138671875 111.626953125 -2.9150390625 c 4
 87.7177734375 -42.96875 60.0966796875 -50.3818359375 36.7041015625 -37.0859375 c 4
 15.6767578125 -25.1328125 10.63671875 -7.14453125 18.53125 38.8740234375 c 4
 26.4267578125 84.8916015625 97.70703125 254.845703125 141.046875 371.094726562 c 4
 184.106445312 486.588867188 225.470703125 679.3125 293.731445312 669.591796875 c 4
 323.841796875 665.303710938 348.302734375 631.62890625 331.900390625 571.188476562 c 4
EndSplineSet
EndChar

StartChar: backslash
Encoding: 92 92 83
Width: 352
Flags: HW
LayerCount: 2
Fore
SplineSet
20.267578125 571.188476562 m 0
 3.865234375 631.62890625 28.326171875 665.303710938 58.4365234375 669.591796875 c 0
 126.697265625 679.3125 168.061523438 486.588867188 211.12109375 371.094726562 c 0
 254.4609375 254.845703125 325.741210938 84.8916015625 333.63671875 38.8740234375 c 0
 341.53125 -7.14453125 336.491210938 -25.1328125 315.463867188 -37.0859375 c 0
 292.071289062 -50.3818359375 264.450195312 -42.96875 240.541015625 -2.9150390625 c 0
 216.6328125 37.138671875 146.012695312 195.529296875 118.943359375 278.880859375 c 0
 93.3466796875 357.702148438 33.7373046875 521.5546875 20.267578125 571.188476562 c 0
EndSplineSet
EndChar

StartChar: percent
Encoding: 37 37 84
Width: 856
Flags: HW
LayerCount: 2
Fore
SplineSet
631.41796875 538.05859375 m 0
 608.41796875 492.05859375 517.646484375 343.19140625 476.998046875 270.971679688 c 0
 434.012695312 194.600585938 333.524414062 53.26171875 302.181640625 18.712890625 c 0
 270.838867188 -15.8349609375 242.297851562 -17.6513671875 221.989257812 0 c 0
 203.734375 15.8671875 202.342773438 34.49609375 219.1640625 78.0517578125 c 0
 235.985351562 121.606445312 339.40234375 274.15234375 404.831054688 379.5625 c 0
 469.834960938 484.288085938 548.41796875 665.05859375 613.41796875 642.05859375 c 0
 642.08984375 631.913085938 659.424804688 594.073242188 631.41796875 538.05859375 c 0
672.377929688 198.44140625 m 0
 631.6328125 197.868164062 603.673828125 181.442382812 602.5546875 141.109375 c 0
 601.578125 105.907226562 623.712890625 84.1103515625 662.854492188 84.1103515625 c 0
 696.709960938 84.1103515625 723.09375 100.879882812 722.098632812 146.651367188 c 0
 721.44140625 176.955078125 707.26953125 198.931640625 672.377929688 198.44140625 c 0
668.92578125 295.473632812 m 0
 733.1875 295.473632812 812.055664062 264.704101562 812.055664062 156.583984375 c 0
 812.055664062 46.3212890625 762.819335938 -10 660 -10 c 0
 549.147460938 -10 504 69.3720703125 506.80859375 144.854492188 c 0
 510.94140625 255.927734375 600.28125 295.473632812 668.92578125 295.473632812 c 0
212.03515625 540.96875 m 4
 171.290039062 540.395507812 143.331054688 523.969726562 142.211914062 483.63671875 c 4
 141.235351562 448.434570312 163.370117188 426.637695312 202.51171875 426.637695312 c 4
 236.3671875 426.637695312 262.750976562 443.407226562 261.755859375 489.178710938 c 4
 261.098632812 519.482421875 246.926757812 541.458984375 212.03515625 540.96875 c 4
208.583007812 638.000976562 m 4
 272.844726562 638.000976562 351.712890625 607.231445312 351.712890625 499.111328125 c 4
 351.712890625 388.848632812 302.4765625 332.52734375 199.657226562 332.52734375 c 4
 88.8046875 332.52734375 43.6572265625 411.899414062 46.4658203125 487.381835938 c 4
 50.5986328125 598.455078125 139.938476562 638.000976562 208.583007812 638.000976562 c 4
EndSplineSet
EndChar

StartChar: less
Encoding: 60 60 85
Width: 420
Flags: HW
LayerCount: 2
Fore
SplineSet
391.139648438 412.517578125 m 0
 391.139648438 382.336914062 366.5 368.220703125 352.583007812 362.653320312 c 0
 307.146484375 344.479492188 154.861328125 315.995117188 153.45703125 315.565429688 c 1
 236.12890625 293.772460938 345.495117188 278.061523438 361.552734375 268.426757812 c 0
 386.857421875 253.245117188 393.291992188 234.766601562 393.291992188 221.15234375 c 0
 393.291992188 204.75390625 382.291992188 174.592773438 344.987304688 174.592773438 c 0
 289.69140625 174.592773438 111.150390625 239.352539062 108.84765625 240.19140625 c 0
 57.734375 258.815429688 27.7802734375 269.729492188 27.7802734375 312.81640625 c 0
 27.7802734375 343.586914062 47.0400390625 358.765625 57.4833984375 364.734375 c 0
 76.6435546875 375.681640625 284.239257812 457.448242188 338.822265625 457.448242188 c 0
 375.803710938 457.448242188 391.139648438 433.85546875 391.139648438 412.517578125 c 0
EndSplineSet
EndChar

StartChar: greater
Encoding: 62 62 86
Width: 421
Flags: HW
LayerCount: 2
Fore
SplineSet
29.8623046875 412.517578125 m 0
 29.8623046875 433.85546875 45.1982421875 457.448242188 82.1796875 457.448242188 c 0
 136.762695312 457.448242188 344.358398438 375.681640625 363.518554688 364.734375 c 0
 373.961914062 358.765625 393.221679688 343.586914062 393.221679688 312.81640625 c 0
 393.221679688 269.729492188 363.267578125 258.815429688 312.154296875 240.19140625 c 0
 309.8515625 239.352539062 131.310546875 174.592773438 76.0146484375 174.592773438 c 0
 38.7099609375 174.592773438 27.7099609375 204.75390625 27.7099609375 221.15234375 c 0
 27.7099609375 234.766601562 34.14453125 253.245117188 59.44921875 268.426757812 c 0
 75.5068359375 278.061523438 184.873046875 293.772460938 267.544921875 315.565429688 c 1
 266.140625 315.995117188 113.85546875 344.479492188 68.4189453125 362.653320312 c 0
 54.501953125 368.220703125 29.8623046875 382.336914062 29.8623046875 412.517578125 c 0
EndSplineSet
EndChar

StartChar: equal
Encoding: 61 61 87
Width: 427
Flags: HW
LayerCount: 2
Fore
SplineSet
218.118164062 444 m 0
 263.662109375 450.461914062 292.118164062 456 327.118164062 443 c 0
 365.104492188 428.890625 365.63671875 376.362304688 338.118164062 360 c 0
 301.118164062 338 277.133789062 338.817382812 206.977539062 328.86328125 c 0
 161.43359375 322.401367188 124.715820312 308.528320312 76.0185546875 316.44140625 c 0
 18.5634765625 325.778320312 22.6005859375 384.2109375 52.6318359375 400.084960938 c 0
 97.232421875 423.66015625 147.961914062 434.045898438 218.118164062 444 c 0
218.118164062 284 m 0
 263.662109375 290.461914062 292.118164062 296 327.118164062 283 c 0
 365.104492188 268.890625 365.63671875 216.362304688 338.118164062 200 c 0
 301.118164062 178 277.133789062 178.817382812 206.977539062 168.86328125 c 0
 161.43359375 162.401367188 124.715820312 148.528320312 76.0185546875 156.44140625 c 0
 18.5634765625 165.778320312 22.6005859375 224.2109375 52.6318359375 240.084960938 c 0
 97.232421875 263.66015625 147.961914062 274.045898438 218.118164062 284 c 0
EndSplineSet
EndChar

StartChar: numbersign
Encoding: 35 35 88
Width: 638
Flags: HW
LayerCount: 2
Fore
SplineSet
32.0087890625 177 m 0
 33.0087890625 233 96.8515625 254.49609375 306.008789062 262 c 0
 510.173828125 269.32421875 582.008789062 261 579.008789062 204 c 0
 575.592773438 139.08984375 472.252929688 146.009765625 298.008789062 140 c 0
 143.961914062 134.686523438 130.008789062 128 98.0087890625 128 c 0
 60.34765625 128 31.4375 144.989257812 32.0087890625 177 c 0
52.0087890625 387 m 0
 53.0087890625 443 116.8515625 464.49609375 326.008789062 472 c 0
 530.173828125 479.32421875 602.008789062 471 599.008789062 414 c 0
 595.592773438 349.08984375 492.252929688 356.009765625 318.008789062 350 c 0
 163.961914062 344.686523438 150.008789062 338 118.008789062 338 c 0
 80.34765625 338 51.4375 354.989257812 52.0087890625 387 c 0
198.55078125 488.568359375 m 0
 218.327148438 596.225585938 241.962890625 634.309570312 271.731445312 630.587890625 c 0
 301.5 626.8671875 324.010742188 593.936523438 305.46875 465.125976562 c 0
 251.885742188 92.8974609375 252.686523438 -8.1396484375 185.009765625 0 c 0
 118.741210938 7.970703125 129.008789062 110 198.55078125 488.568359375 c 0
388.55078125 488.568359375 m 0
 408.327148438 596.225585938 431.962890625 634.309570312 461.731445312 630.587890625 c 0
 491.5 626.8671875 514.010742188 593.936523438 495.46875 465.125976562 c 0
 441.885742188 92.8974609375 442.686523438 -8.1396484375 375.009765625 0 c 0
 308.741210938 7.970703125 319.008789062 110 388.55078125 488.568359375 c 0
EndSplineSet
EndChar

StartChar: bracketleft
Encoding: 91 91 89
Width: 301
Flags: HW
LayerCount: 2
Fore
SplineSet
39.11328125 618 m 0
 40.2666015625 667.73046875 53.6005859375 696.852539062 187.529296875 695.798828125 c 0
 255.543945312 695.263671875 271.439453125 665.744140625 271.424804688 642.743164062 c 0
 271.11328125 603.732421875 227.396484375 599.793945312 192.466796875 599.794921875 c 0
 166.991210938 599.794921875 147.940429688 600.1953125 133.943359375 600.873046875 c 1
 133.943359375 38.67578125 l 1
 146.428710938 39.5615234375 165.15625 40.1650390625 192.466796875 40.166015625 c 0
 227.396484375 40.1669921875 271.11328125 36.228515625 271.424804688 -2.7822265625 c 0
 271.439453125 -25.783203125 255.543945312 -55.3037109375 187.529296875 -55.837890625 c 0
 51.669921875 -56.9052734375 39.0703125 -28.380859375 39.0703125 36 c 0
 39.0703125 88 39.11328125 555 39.11328125 618 c 0
EndSplineSet
EndChar

StartChar: bracketright
Encoding: 93 93 90
Width: 300
Flags: HW
LayerCount: 2
Fore
SplineSet
262.911132812 618 m 0
 262.911132812 555 262.954101562 88 262.954101562 36 c 0
 262.954101562 -28.380859375 250.354492188 -56.9052734375 114.495117188 -55.837890625 c 0
 46.48046875 -55.3037109375 30.5849609375 -25.783203125 30.599609375 -2.7822265625 c 0
 30.9111328125 36.228515625 74.6279296875 40.1669921875 109.557617188 40.166015625 c 0
 136.8671875 40.1650390625 155.595703125 39.5615234375 168.081054688 38.67578125 c 1
 168.081054688 600.873046875 l 1
 154.083984375 600.1953125 135.032226562 599.794921875 109.557617188 599.794921875 c 0
 74.6279296875 599.793945312 30.9111328125 603.732421875 30.599609375 642.743164062 c 0
 30.5849609375 665.744140625 46.48046875 695.263671875 114.495117188 695.798828125 c 0
 248.423828125 696.852539062 261.7578125 667.73046875 262.911132812 618 c 0
EndSplineSet
EndChar

StartChar: braceleft
Encoding: 123 123 91
Width: 427
Flags: HW
LayerCount: 2
Fore
SplineSet
247.153320312 106.491210938 m 4
 290.75390625 121.155273438 317.721679688 131.79296875 354.506835938 125.397460938 c 4
 394.428710938 118.456054688 404.538085938 66.9072265625 380.466796875 45.7978515625 c 4
 348.102539062 17.4150390625 324.372070312 13.8427734375 257.208984375 -8.7451171875 c 4
 213.608398438 -23.4091796875 180.0390625 -43.7490234375 130.715820312 -44.85546875 c 4
 72.5205078125 -46.1591796875 65.828125 12.029296875 92.458984375 33.1162109375 c 4
 132.008789062 64.43359375 179.991210938 83.90234375 247.153320312 106.491210938 c 4
290.733398438 629.489257812 m 4
 333.515625 612.5859375 360.987304688 603.329101562 384.981445312 574.72265625 c 4
 411.021484375 543.67578125 385.510742188 497.754882812 353.500976562 497.140625 c 4
 310.461914062 496.313476562 290.01953125 508.883789062 224.118164062 534.922851562 c 4
 181.3359375 551.826171875 142.561523438 557.923828125 104.147460938 588.880859375 c 4
 58.82421875 625.407226562 91.2265625 674.200195312 125.178710938 673.147460938 c 4
 175.602539062 671.584960938 224.83203125 655.528320312 290.733398438 629.489257812 c 4
229.936523438 371.255859375 m 4
 275.934570312 370.866210938 304.8984375 372.106445312 337.573242188 354.041015625 c 4
 373.036132812 334.434570312 365.7421875 282.412109375 336.094726562 270.329101562 c 4
 296.232421875 254.08203125 272.63671875 258.459960938 201.780273438 259.060546875 c 4
 155.782226562 259.450195312 117.408203125 251.197265625 70.431640625 266.271484375 c 4
 15.0068359375 284.057617188 27.697265625 341.23828125 59.7568359375 352.46484375 c 4
 107.369140625 369.137695312 159.080078125 371.856445312 229.936523438 371.255859375 c 4
EndSplineSet
EndChar

StartChar: braceright
Encoding: 125 125 92
Width: 427
Flags: HW
LayerCount: 2
Fore
SplineSet
180.858398438 106.491210938 m 4
 248.020507812 83.90234375 296.002929688 64.43359375 335.552734375 33.1162109375 c 4
 362.18359375 12.029296875 355.491210938 -46.1591796875 297.295898438 -44.85546875 c 4
 247.97265625 -43.7490234375 214.403320312 -23.4091796875 170.802734375 -8.7451171875 c 4
 103.639648438 13.8427734375 79.9091796875 17.4150390625 47.544921875 45.7978515625 c 4
 23.4736328125 66.9072265625 33.5830078125 118.456054688 73.5048828125 125.397460938 c 4
 110.290039062 131.79296875 137.2578125 121.155273438 180.858398438 106.491210938 c 4
137.278320312 629.489257812 m 4
 203.1796875 655.528320312 252.409179688 671.584960938 302.833007812 673.147460938 c 4
 336.78515625 674.200195312 369.1875 625.407226562 323.864257812 588.880859375 c 4
 285.450195312 557.923828125 246.67578125 551.826171875 203.893554688 534.922851562 c 4
 137.9921875 508.883789062 117.549804688 496.313476562 74.5107421875 497.140625 c 4
 42.5009765625 497.754882812 16.990234375 543.67578125 43.0302734375 574.72265625 c 4
 67.0244140625 603.329101562 94.49609375 612.5859375 137.278320312 629.489257812 c 4
198.075195312 371.255859375 m 4
 268.931640625 371.856445312 320.642578125 369.137695312 368.254882812 352.46484375 c 4
 400.314453125 341.23828125 413.004882812 284.057617188 357.580078125 266.271484375 c 4
 310.603515625 251.197265625 272.229492188 259.450195312 226.231445312 259.060546875 c 4
 155.375 258.459960938 131.779296875 254.08203125 91.9169921875 270.329101562 c 4
 62.26953125 282.412109375 54.9755859375 334.434570312 90.4384765625 354.041015625 c 4
 123.11328125 372.106445312 152.077148438 370.866210938 198.075195312 371.255859375 c 4
EndSplineSet
EndChar

StartChar: ampersand
Encoding: 38 38 93
Width: 552
Flags: HW
LayerCount: 2
Fore
SplineSet
427.491210938 -2.794921875 m 0
 247 146 69.8125 275 69.8125 445.509765625 c 0
 69.8125 588.215820312 155.8125 641.509765625 249.8125 647.509765625 c 0
 343.8125 653.509765625 431.8125 603.509765625 446.8125 548.509765625 c 0
 467.362304688 473.159179688 405.8125 461.509765625 377.8125 483.509765625 c 0
 349.8125 505.509765625 331.8125 539.509765625 267.8125 535.509765625 c 0
 203.8125 531.509765625 186.620117188 485.305664062 186.620117188 443 c 0
 186.620117188 328.490234375 319.999023438 249.828125 477.943359375 106.57421875 c 0
 527.333984375 61.77734375 528.567382812 21.9443359375 510 0 c 0
 492.301757812 -20.9169921875 456.022460938 -26.3154296875 427.491210938 -2.794921875 c 0
119 356 m 0
 154 371 193.239595289 341.258720166 197 296 c 0
 200.740760577 250.97770874 140 273 140 186 c 0
 140 141.818359375 158 100 225 100 c 0
 302.609375 100 314.716796875 156.818359375 343 204 c 0
 392.206054688 286.0859375 411.9296875 366.955078125 464 346 c 0
 492.369140625 334.583007812 493.923828125 299.455078125 477 244 c 0
 445.006835938 139.166015625 362.962890625 -10 223 -10 c 0
 85.9248046875 -10 27.3834187449 73.9969187695 28 182 c 0
 28.6225060668 291.040897274 84 338 119 356 c 0
EndSplineSet
EndChar

StartChar: underscore
Encoding: 95 95 94
Width: 498
Flags: HW
HStem: -4 21G<83.7722 108.772> 617 20G<76.2722 98.2722>
VStem: 46.2722 109<48.3627 617.176>
LayerCount: 2
Fore
SplineSet
26.4638671875 -131 m 0
 27.4638671875 -75 111.458984375 -45.9287109375 250.463867188 -36 c 0
 404.463867188 -25 466.463867188 -37 463.463867188 -94 c 0
 460.047851562 -158.91015625 366.463867188 -147 242.463867188 -158 c 0
 158.579101562 -165.44140625 124.463867188 -170 92.4638671875 -170 c 0
 54.802734375 -170 25.892578125 -163.010742188 26.4638671875 -131 c 0
EndSplineSet
EndChar

StartChar: at
Encoding: 64 64 95
Width: 730
Flags: HW
LayerCount: 2
Fore
SplineSet
421.431640625 228.33203125 m 0
 445.076499486 198.837613991 481.46875 185 518 185 c 0
 633.831054688 185 684 267.661132812 684 366 c 0
 684 568 521.475585938 638 389.915039062 638 c 0
 249.384765625 638 49.404296875 543.874023438 43.0751953125 326 c 0
 37.32421875 127.997070312 149 -10 355.530273438 -10 c 0
 411.688450716 -10 473.510742188 -9.603515625 563.01171875 16.212890625 c 0
 629.286132812 35.330078125 618.973632812 114.14453125 564.025390625 115.249023438 c 0
 518.266601562 116.168945312 476.324219584 84.6900876988 367.563476562 84.8720703125 c 0
 232.042065351 85.0988298945 137.088867188 172.869140625 140.473632812 314.977539062 c 0
 144.350585938 477.796875 259.462890625 544.106445312 400.52734375 546.422851562 c 0
 521.331054688 548.408203125 590.991210938 459.700195312 590.991210938 367.3515625 c 0
 590.991210938 309.172851562 567.00000417 264.108867748 528 264 c 0
 490.567465295 263.895507813 475.186486993 306 489 400 c 0
 494.725925117 438.964524141 474.86328125 456.637695312 446 459.451171875 c 0
 307 473 227.284179688 406.9609375 224.447265625 318.083984375 c 0
 222.200195312 247.698242188 248.318359375 188.200195312 337 188.200195312 c 0
 392.40234375 188.200195312 424.228287661 213.94753921 442.969726562 227.864257812 c 0
 480.369957416 255.636324364 448.05951432 312.459847336 407 284 c 0
 400.702541861 279.635002016 377.427734375 263.48828125 349.283203125 263.48828125 c 0
 317.970703125 263.48828125 300.456054688 276.921875 301.043945312 315.087890625 c 0
 301.6640625 355.379882812 339 391 404.896484375 385.674804688 c 1
 400.841796875 358.849609375 396.486226072 259.448751797 421.431640625 228.33203125 c 0
EndSplineSet
EndChar

StartChar: asciicircum
Encoding: 94 94 96
Width: 421
Flags: HW
LayerCount: 2
Fore
SplineSet
113.96875 295.416992188 m 4
 92.630859375 295.416992188 69.0380859375 310.752929688 69.0380859375 347.734375 c 4
 69.0380859375 402.317382812 150.8046875 609.913085938 161.751953125 629.073242188 c 4
 167.720703125 639.516601562 182.899414062 658.776367188 213.669921875 658.776367188 c 4
 256.756835938 658.776367188 267.670898438 628.822265625 286.294921875 577.708984375 c 4
 287.133789062 575.40625 351.893554688 396.865234375 351.893554688 341.569335938 c 4
 351.893554688 304.264648438 321.732421875 293.264648438 305.333984375 293.264648438 c 4
 291.719726562 293.264648438 273.241210938 299.69921875 258.059570312 325.00390625 c 4
 248.424804688 341.061523438 232.713867188 450.427734375 210.920898438 533.099609375 c 5
 210.491210938 531.6953125 182.006835938 379.41015625 163.833007812 333.973632812 c 4
 158.265625 320.056640625 144.149414062 295.416992188 113.96875 295.416992188 c 4
EndSplineSet
EndChar

StartChar: bar
Encoding: 124 124 97
Width: 218
Flags: HW
HStem: -4 21G<83.7722 108.772> 617 20G<76.2722 98.2722>
VStem: 46.2722 109<48.3627 617.176>
LayerCount: 2
Fore
SplineSet
156.272460938 641 m 0
 164.272460938 619 165.272460938 594 165.272460938 532 c 0
 165.272460938 470 164.272460938 430 164.272460938 322 c 0
 164.272460938 213.92578125 161.272460938 -5 151.272460938 -18 c 0
 141.272460938 -31 131.272460938 -40 106.272460938 -40 c 0
 81.2724609375 -40 57.2724609375 -34 55.2724609375 14 c 0
 53.2724609375 62 50.2724609375 633 56.2724609375 651 c 0
 62.2724609375 669 75.2724609375 681 97.2724609375 681 c 0
 119.272460938 681 146.180664062 668.751953125 156.272460938 641 c 0
EndSplineSet
EndChar

StartChar: asciitilde
Encoding: 126 126 98
Width: 427
Flags: HW
LayerCount: 2
Fore
SplineSet
246.32421875 334.475585938 m 4
 270.385742188 314.365234375 291.973632812 312.33203125 322.283203125 325.818359375 c 4
 403.598632812 362 423.448242188 272.8046875 364.802734375 245.596679688 c 4
 291.922851562 211.78515625 223.814453125 238.584960938 184.514648438 264.083007812 c 4
 161.3671875 279.100585938 136.392578125 287.44140625 108.556640625 272.739257812 c 4
 28.736328125 230.580078125 -2.337890625 315.176757812 66.0361328125 352.9609375 c 4
 137.228515625 392.302734375 209.405273438 365.333007812 246.32421875 334.475585938 c 4
EndSplineSet
EndChar
